<svg width="60" height="60" viewBox="0 0 60 60" fill="none" xmlns="http://www.w3.org/2000/svg">
<path d="M18.7998 26.6001C18.9888 26.3496 19.0493 26.0249 18.9629 25.7231L16.9629 18.7231C16.8393 18.2939 16.4463 17.999 16 18H6C5.44775 18 5 18.4478 5 19V26C5 26.5522 5.44775 27 6 27H18C18.3149 27 18.6113 26.8516 18.7998 26.6001ZM15.7212 25L14.9492 22.6841L13.0488 23.3159L13.6118 25H10.7212L9.94922 22.6841L8.04883 23.3159L8.61181 25H7V20H15.2461L16.6738 25H15.7212Z" fill="white"/>
<path d="M21.0391 26.2749C21.1617 26.7041 21.5538 27 22 27H43C43.314 27 43.6094 26.8525 43.7984 26.6021C43.9869 26.3516 44.0474 26.0269 43.961 25.7251L41.961 18.7251C41.8384 18.2959 41.4463 18 41 18H20C19.6861 18 19.3907 18.1475 19.2017 18.3979C19.0132 18.6484 18.9527 18.9731 19.0391 19.2749L21.0391 26.2749ZM40.2461 20L41.3999 24.022L40.9541 22.6841L39.0542 23.3159L39.6119 25H37.7212L36.9493 22.6841L35.0489 23.3159L35.6119 25H33.7212L32.9493 22.6841L31.0489 23.3159L31.6119 25H29.7212L28.9493 22.6841L27.0489 23.3159L27.6119 25H25.7212L24.9493 22.6841L23.0489 23.3159L23.6119 25H22.7539L21.3262 20H40.2461Z" fill="white"/>
<path d="M46.0391 26.2749C46.1617 26.7041 46.5538 27 47 27H50C50.314 27 50.6094 26.8525 50.7984 26.6021C50.9869 26.3516 51.0474 26.0269 50.961 25.7251L48.961 18.7251C48.8384 18.2959 48.4463 18 48 18H45C44.6861 18 44.3907 18.1475 44.2017 18.3979C44.0132 18.6484 43.9527 18.9731 44.0391 19.2749L46.0391 26.2749ZM47.2461 20L48.6739 25H47.754L46.3262 20H47.2461Z" fill="white"/>
<path d="M60 43H52.9692C53.96 42.2715 54.647 41.2036 54.8989 40H59C59.5522 40 60 39.5522 60 39V30C60 29.9067 59.9868 29.8145 59.9609 29.7251L55.9609 15.7251C55.8384 15.2959 55.4463 15 55 15H3C2.44775 15 2 15.4478 2 16V39C2 39.5522 2.44775 40 3 40H5.1001C5.35205 41.2036 6.03906 42.2715 7.02979 43H0V45H60V43ZM16 39C16 37.3433 17.3433 36 19 36C20.6567 36 22 37.3433 22 39C22 40.6567 20.6567 42 19 42C17.3433 42 16 40.6567 16 39ZM23.8999 40H45.1001C45.3521 41.2036 46.0391 42.2715 47.0298 43H21.9692C22.96 42.272 23.6475 41.2036 23.8999 40ZM34 33H39V38H34V33ZM32 38H27V33H32V38ZM50 42C48.3433 42 47 40.6567 47 39C47 37.3433 48.3433 36 50 36C51.6567 36 53 37.3433 53 39C53 40.6567 51.6567 42 50 42ZM57.0269 26.7329L57.6738 29H55.7642L53.3091 20H55.1001L57.0269 26.7329ZM5.1001 38H4V17H54.2461L54.5308 18H52C51.6885 18 51.3945 18.145 51.2051 18.3931C51.0161 18.6406 50.9531 18.9624 51.0352 19.2632L54.0352 30.2632C54.1538 30.6982 54.5488 31 55 31H58V32H57V34H58V38H54.8999C54.4268 35.6694 52.3779 33.9951 50 33.9951C47.6221 33.9951 45.5732 35.6694 45.1001 38H41V32C41 31.4478 40.5522 31 40 31H26C25.4478 31 25 31.4478 25 32V38H23.8999C23.4751 35.8921 21.7466 34.2939 19.6118 34.0347C17.4771 33.7759 15.4165 34.9146 14.5 36.8599C13.5835 34.9146 11.5229 33.7759 9.38818 34.0347C7.25342 34.2939 5.5249 35.8921 5.1001 38ZM10 36C11.6567 36 13 37.3433 13 39C13 40.6567 11.6567 42 10 42C8.34326 42 7 40.6567 7 39C7 37.3433 8.34326 36 10 36ZM14.5 41.1401C14.8516 41.8755 15.377 42.5137 16.0308 43H12.9692C13.623 42.5137 14.1484 41.8755 14.5 41.1401Z" fill="white"/>
</svg>
