<svg width="32" height="32" viewBox="0 0 32 32" fill="none" xmlns="http://www.w3.org/2000/svg">
<path d="M16.0001 2.66675C23.3641 2.66675 29.3334 8.63608 29.3334 16.0001C29.3334 23.3641 23.3641 29.3334 16.0001 29.3334C8.63608 29.3334 2.66675 23.3641 2.66675 16.0001C2.66675 8.63608 8.63608 2.66675 16.0001 2.66675ZM12.0707 11.4467C12.0241 11.5399 11.9999 11.6426 12.0001 11.7467V20.2561C12.0001 20.3698 12.0292 20.4816 12.0845 20.5808C12.1399 20.6801 12.2198 20.7636 12.3165 20.8233C12.4133 20.883 12.5237 20.917 12.6372 20.9221C12.7508 20.9271 12.8638 20.903 12.9654 20.8521L21.4748 16.5987C21.5857 16.5435 21.679 16.4583 21.7442 16.3529C21.8095 16.2475 21.844 16.126 21.844 16.0021C21.844 15.8781 21.8095 15.7566 21.7442 15.6512C21.679 15.5458 21.5857 15.4607 21.4748 15.4054L12.9654 11.1494C12.8073 11.0702 12.6243 11.057 12.4565 11.1128C12.2887 11.1686 12.15 11.2887 12.0707 11.4467Z" fill="#59A4F2"/>
</svg>
