<svg width="51" height="51" viewBox="0 0 51 51" fill="none" xmlns="http://www.w3.org/2000/svg">
<path d="M27.0938 42.2344H28.6875V43.8281H27.0938V42.2344Z" fill="white"/>
<path d="M22.3125 42.2344H23.9062V43.8281H22.3125V42.2344Z" fill="white"/>
<path d="M5.57812 9.5625H7.17188V15.9375H5.57812V9.5625Z" fill="white"/>
<path d="M9.5625 9.5625H11.1562V15.9375H9.5625V9.5625Z" fill="white"/>
<path d="M5.57812 17.5312H7.17188V23.9062H5.57812V17.5312Z" fill="white"/>
<path d="M9.5625 17.5312H11.1562V23.9062H9.5625V17.5312Z" fill="white"/>
<path d="M5.57812 25.5H7.17188V31.875H5.57812V25.5Z" fill="white"/>
<path d="M9.5625 25.5H11.1562V30.2812H9.5625V25.5Z" fill="white"/>
<path d="M43.8281 9.5625H45.4219V15.9375H43.8281V9.5625Z" fill="white"/>
<path d="M39.8438 9.5625H41.4375V15.9375H39.8438V9.5625Z" fill="white"/>
<path d="M43.8281 17.5312H45.4219V23.9062H43.8281V17.5312Z" fill="white"/>
<path d="M39.8438 17.5312H41.4375V23.9062H39.8438V17.5312Z" fill="white"/>
<path d="M43.8281 25.5H45.4219V31.875H43.8281V25.5Z" fill="white"/>
<path d="M39.8438 25.5H41.4375V30.2812H39.8438V25.5Z" fill="white"/>
<path d="M23.9062 9.5625H27.0938V12.75H28.6875V4.78125H27.0938V7.96875H23.9062V4.78125H22.3125V12.75H23.9062V9.5625Z" fill="white"/>
<path d="M48.6094 3.1875H31.8639C31.8144 2.74941 31.6054 2.34485 31.2768 2.05094C30.9482 1.75702 30.5229 1.59429 30.082 1.59375H20.918C20.4771 1.59429 20.0518 1.75702 19.7232 2.05094C19.3946 2.34485 19.1856 2.74941 19.1361 3.1875H2.39062C2.17928 3.1875 1.97659 3.27146 1.82715 3.4209C1.67771 3.57034 1.59375 3.77303 1.59375 3.98438V15.9375H3.1875V7.96875H13.5469V31.875H11.1562C10.9449 31.875 10.7422 31.959 10.5928 32.1084C10.4433 32.2578 10.3594 32.4605 10.3594 32.6719V33.4688H3.1875V17.5312H1.59375V48.6094C1.59375 48.8207 1.67771 49.0234 1.82715 49.1729C1.97659 49.3223 2.17928 49.4062 2.39062 49.4062H48.6094C48.8207 49.4062 49.0234 49.3223 49.1729 49.1729C49.3223 49.0234 49.4062 48.8207 49.4062 48.6094V42.2344H47.8125V43.8281H39.0469V36.6562H39.8438C40.0551 36.6562 40.2578 36.5723 40.4072 36.4229C40.5567 36.2734 40.6406 36.0707 40.6406 35.8594V35.0625H47.8125V40.4934H49.4062V3.98438C49.4062 3.77303 49.3223 3.57034 49.1729 3.4209C49.0234 3.27146 48.8207 3.1875 48.6094 3.1875ZM31.875 6.375V4.78125H47.8125V6.375H31.875ZM20.7188 3.38672C20.7188 3.33388 20.7397 3.28321 20.7771 3.24585C20.8145 3.20849 20.8651 3.1875 20.918 3.1875H30.082C30.1349 3.1875 30.1855 3.20849 30.2229 3.24585C30.2603 3.28321 30.2812 3.33388 30.2812 3.38672V14.1445C30.2812 14.1974 30.2603 14.248 30.2229 14.2854C30.1855 14.3228 30.1349 14.3438 30.082 14.3438H20.918C20.8651 14.3438 20.8145 14.3228 20.7771 14.2854C20.7397 14.248 20.7188 14.1974 20.7188 14.1445V3.38672ZM3.1875 4.78125H19.125V6.375H3.1875V4.78125ZM15.1406 7.96875H19.125V14.1445C19.1256 14.6199 19.3146 15.0756 19.6508 15.4117C19.9869 15.7479 20.4426 15.9369 20.918 15.9375H30.082C30.5574 15.9369 31.0131 15.7479 31.3492 15.4117C31.6854 15.0756 31.8744 14.6199 31.875 14.1445V7.96875H35.8594V31.875H15.1406V7.96875ZM13.5469 46.2188H18.3281V47.8125H13.5469V46.2188ZM18.3281 44.625H13.5469V36.6562H18.3281V44.625ZM10.3594 35.0625V35.8594C10.3594 36.0707 10.4433 36.2734 10.5928 36.4229C10.7422 36.5723 10.9449 36.6562 11.1562 36.6562H11.9531V43.8281H3.1875V35.0625H10.3594ZM3.1875 45.4219H11.9531V47.8125H3.1875V45.4219ZM19.9219 36.6562H24.7031V47.8125H19.9219V36.6562ZM26.2969 47.8125V36.6562H31.0781V47.8125H26.2969ZM37.4531 47.8125H32.6719V46.2188H37.4531V47.8125ZM47.8125 45.4219V47.8125H39.0469V45.4219H47.8125ZM37.4531 44.625H32.6719V36.6562H37.4531V44.625ZM39.0469 35.0625H11.9531V33.4688H39.0469V35.0625ZM40.6406 33.4688V32.6719C40.6406 32.4605 40.5567 32.2578 40.4072 32.1084C40.2578 31.959 40.0551 31.875 39.8438 31.875H37.4531V7.96875H47.8125V33.4688H40.6406Z" fill="white"/>
<path d="M21.9141 17.5312H17.5312C17.3199 17.5312 17.1172 17.6152 16.9678 17.7646C16.8183 17.9141 16.7344 18.1168 16.7344 18.3281V20.3203C16.7352 21.0598 17.0293 21.7687 17.5522 22.2915C18.0751 22.8144 18.784 23.1085 19.5234 23.1094H23.9062C24.1176 23.1094 24.3203 23.0254 24.4697 22.876C24.6192 22.7265 24.7031 22.5238 24.7031 22.3125V20.3203C24.7023 19.5809 24.4082 18.8719 23.8853 18.3491C23.3624 17.8262 22.6535 17.5321 21.9141 17.5312ZM23.1094 21.5156H19.5234C19.2065 21.5153 18.9027 21.3892 18.6786 21.1651C18.4545 20.9411 18.3285 20.6372 18.3281 20.3203V19.125H21.9141C22.231 19.1253 22.5348 19.2514 22.7589 19.4755C22.983 19.6996 23.109 20.0034 23.1094 20.3203V21.5156Z" fill="white"/>
<path d="M33.4688 17.5312H29.0859C28.3465 17.5321 27.6376 17.8262 27.1147 18.3491C26.5918 18.8719 26.2977 19.5809 26.2969 20.3203V22.3125C26.2969 22.5238 26.3808 22.7265 26.5303 22.876C26.6797 23.0254 26.8824 23.1094 27.0938 23.1094H31.4766C32.216 23.1085 32.9249 22.8144 33.4478 22.2915C33.9707 21.7687 34.2648 21.0598 34.2656 20.3203V18.3281C34.2656 18.1168 34.1817 17.9141 34.0322 17.7646C33.8828 17.6152 33.6801 17.5312 33.4688 17.5312ZM32.6719 20.3203C32.6715 20.6372 32.5455 20.9411 32.3214 21.1651C32.0973 21.3892 31.7935 21.5153 31.4766 21.5156H27.8906V20.3203C27.891 20.0034 28.017 19.6996 28.2411 19.4755C28.4652 19.2514 28.769 19.1253 29.0859 19.125H32.6719V20.3203Z" fill="white"/>
<path d="M21.9141 24.7031H17.5312C17.3199 24.7031 17.1172 24.7871 16.9678 24.9365C16.8183 25.086 16.7344 25.2887 16.7344 25.5V27.4922C16.7352 28.2316 17.0293 28.9406 17.5522 29.4634C18.0751 29.9863 18.784 30.2804 19.5234 30.2812H23.9062C24.1176 30.2812 24.3203 30.1973 24.4697 30.0479C24.6192 29.8984 24.7031 29.6957 24.7031 29.4844V27.4922C24.7023 26.7527 24.4082 26.0438 23.8853 25.521C23.3624 24.9981 22.6535 24.704 21.9141 24.7031ZM23.1094 28.6875H19.5234C19.2065 28.6872 18.9027 28.5611 18.6786 28.337C18.4545 28.1129 18.3285 27.8091 18.3281 27.4922V26.2969H21.9141C22.231 26.2972 22.5348 26.4233 22.7589 26.6474C22.983 26.8714 23.109 27.1753 23.1094 27.4922V28.6875Z" fill="white"/>
<path d="M33.4688 24.7031H29.0859C28.3465 24.704 27.6376 24.9981 27.1147 25.521C26.5918 26.0438 26.2977 26.7527 26.2969 27.4922V29.4844C26.2969 29.6957 26.3808 29.8984 26.5303 30.0479C26.6797 30.1973 26.8824 30.2812 27.0938 30.2812H31.4766C32.216 30.2804 32.9249 29.9863 33.4478 29.4634C33.9707 28.9406 34.2648 28.2316 34.2656 27.4922V25.5C34.2656 25.2887 34.1817 25.086 34.0322 24.9365C33.8828 24.7871 33.6801 24.7031 33.4688 24.7031ZM32.6719 27.4922C32.6715 27.8091 32.5455 28.1129 32.3214 28.337C32.0973 28.5611 31.7935 28.6872 31.4766 28.6875H27.8906V27.4922C27.891 27.1753 28.017 26.8714 28.2411 26.6474C28.4652 26.4233 28.769 26.2972 29.0859 26.2969H32.6719V27.4922Z" fill="white"/>
</svg>
