<svg width="40" height="40" viewBox="0 0 40 40" fill="none" xmlns="http://www.w3.org/2000/svg">
<path opacity="0.3" fill-rule="evenodd" clip-rule="evenodd" d="M20 40C31.0457 40 40 31.0457 40 20C40 8.9543 31.0457 0 20 0C8.9543 0 0 8.9543 0 20C0 31.0457 8.9543 40 20 40Z" fill="#ACCCFF"/>
<path fill-rule="evenodd" clip-rule="evenodd" d="M16.247 14.3821C15.4219 14.5855 14.8433 15.3121 14.8433 16.1452V18.7804V24.6496C14.32 24.4868 13.7398 24.3932 13.1258 24.3932C10.8474 24.3932 9 25.6483 9 27.1966C9 28.7454 10.8474 30 13.1258 30C15.4043 30 17.2511 28.7454 17.2511 27.1966V18.1869L25.5917 16.1322V22.4678C25.0684 22.3049 24.4876 22.2113 23.8742 22.2113C21.5957 22.2113 19.7484 23.4659 19.7484 25.0142C19.7484 26.5631 21.5957 27.8182 23.8742 27.8182C26.1526 27.8182 28 26.5631 28 25.0142V15.5393V13.8184C28 12.6353 26.8627 11.767 25.6901 12.0559L16.247 14.3821Z" fill="#5798FF"/>
</svg>
