<svg width="40" height="40" viewBox="0 0 40 40" fill="none" xmlns="http://www.w3.org/2000/svg">
<path opacity="0.3" fill-rule="evenodd" clip-rule="evenodd" d="M20 40C31.0457 40 40 31.0457 40 20C40 8.9543 31.0457 0 20 0C8.9543 0 0 8.9543 0 20C0 31.0457 8.9543 40 20 40Z" fill="#FFC8AC"/>
<path fill-rule="evenodd" clip-rule="evenodd" d="M14.0385 21.1124C14.0385 18.3742 16.266 16.1467 19.0031 16.1467C19.4803 16.1467 19.9694 16.1684 20.4069 16.3479C21.083 16.6253 21.083 17.4521 21.083 17.4521L19.287 19.2482C19.1931 19.2337 19.1003 19.2191 19.0031 19.2191C17.9592 19.2191 17.1109 20.0686 17.1109 21.1124C17.1109 22.1552 17.9592 23.0046 19.0031 23.0046C20.047 23.0046 20.8964 22.1552 20.8964 21.1124C20.8964 21.0152 20.8819 20.9213 20.8673 20.8286L22.7059 18.9889L23.5665 19.1722C23.8269 19.7847 23.9677 20.434 23.9677 21.1124C23.9677 23.8496 21.7402 26.077 19.0031 26.077C16.266 26.077 14.0385 23.8496 14.0385 21.1124ZM24.6953 13.2096L24.9199 14.268C25.0116 14.6994 25.3491 15.0369 25.7816 15.1286L26.8389 15.3521L25.0004 17.1917L23.2334 16.8162L22.8568 15.0481L24.6953 13.2096ZM29.8756 15.4773C30.165 15.1867 30.2723 14.762 30.1561 14.3686C30.0399 13.9763 29.718 13.6778 29.3168 13.5929L26.9563 13.0922L26.4545 10.7317C26.3695 10.3305 26.0722 10.0086 25.6788 9.89238C25.2843 9.77614 24.8607 9.88344 24.5712 10.174L20.8472 13.8969C20.779 13.9651 20.7209 14.0422 20.6729 14.1249C20.1263 13.9941 19.5686 13.9114 19.0031 13.9114C15.0332 13.9114 11.8032 17.1414 11.8032 21.1124C11.8032 25.0823 15.0332 28.3123 19.0031 28.3123C22.973 28.3123 26.203 25.0823 26.203 21.1124C26.203 20.4988 26.1214 19.9009 25.9716 19.3208C26.032 19.2806 26.099 19.2538 26.1516 19.2013L29.8756 15.4773Z" fill="#E69960"/>
</svg>
