<svg width="28" height="38" viewBox="0 0 28 38" fill="none" xmlns="http://www.w3.org/2000/svg">
<path d="M27.125 29.625V26.5C27.1237 25.3401 26.6623 24.2281 25.8421 23.4079C25.0219 22.5877 23.9099 22.1263 22.75 22.125H18.1375C18.1594 21.907 18.1657 21.6877 18.1562 21.4688L18.1 20.475C19.3132 19.8284 20.3573 18.9054 21.1477 17.7805C21.9382 16.6557 22.4528 15.3606 22.65 14H23.375C23.8718 13.9985 24.3479 13.8005 24.6992 13.4492C25.0505 13.0979 25.2485 12.6218 25.25 12.125V10.25C25.2491 9.9878 25.193 9.7287 25.0853 9.4897C24.9777 9.2506 24.8208 9.0369 24.625 8.8625V5.875C24.6227 4.38387 24.0293 2.95447 22.9749 1.90008C21.9205 0.84569 20.4911 0.25231 19 0.25H4C3.83424 0.25 3.67527 0.31585 3.55806 0.43306C3.44085 0.55027 3.375 0.70924 3.375 0.875V8.8625C3.1792 9.0369 3.02234 9.2506 2.91465 9.4897C2.80697 9.7287 2.75086 9.9878 2.75 10.25V12.125C2.75148 12.6218 2.9495 13.0979 3.30081 13.4492C3.65212 13.8005 4.1282 13.9985 4.625 14H5.35C5.5472 15.3606 6.0618 16.6557 6.8523 17.7805C7.6427 18.9054 8.6868 19.8284 9.9 20.475L9.8438 21.4688C9.8343 21.6877 9.8406 21.907 9.8625 22.125H5.25C4.0901 22.1263 2.97805 22.5877 2.15787 23.4079C1.33768 24.2281 0.87632 25.3401 0.875 26.5V29.625C0.70924 29.625 0.55027 29.6908 0.43306 29.8081C0.31585 29.9253 0.25 30.0842 0.25 30.25V33.375C0.25 33.5408 0.31585 33.6997 0.43306 33.8169C0.55027 33.9342 0.70924 34 0.875 34V37.125C0.875 37.2908 0.94085 37.4497 1.05806 37.5669C1.17527 37.6842 1.33424 37.75 1.5 37.75H26.5C26.6658 37.75 26.8247 37.6842 26.9419 37.5669C27.0592 37.4497 27.125 37.2908 27.125 37.125V34C27.2908 34 27.4497 33.9342 27.5669 33.8169C27.6842 33.6997 27.75 33.5408 27.75 33.375V30.25C27.75 30.0842 27.6842 29.9253 27.5669 29.8081C27.4497 29.6908 27.2908 29.625 27.125 29.625ZM7.125 36.5H2.125V34H7.125V36.5ZM7.125 32.75H1.5V30.875H7.125V32.75ZM7.75 29C7.5842 29 7.4253 29.0658 7.3081 29.1831C7.1908 29.3003 7.125 29.4592 7.125 29.625H2.125V26.5C2.125 25.6712 2.45424 24.8763 3.04029 24.2903C3.62634 23.7042 4.4212 23.375 5.25 23.375H7.75V29ZM24 10.25V12.125C24 12.2908 23.9342 12.4497 23.8169 12.5669C23.6997 12.6842 23.5408 12.75 23.375 12.75H22.75V9.625H23.375C23.5408 9.625 23.6997 9.6908 23.8169 9.8081C23.9342 9.9253 24 10.0842 24 10.25ZM5.25 12.75H4.625C4.4592 12.75 4.3003 12.6842 4.1831 12.5669C4.0658 12.4497 4 12.2908 4 12.125V10.25C4 10.0842 4.0658 9.9253 4.1831 9.8081C4.3003 9.6908 4.4592 9.625 4.625 9.625H5.25V12.75ZM5.25 7.75V8.375H4.625V1.5H19C20.1599 1.50132 21.2719 1.96268 22.0921 2.78287C22.9123 3.60305 23.3737 4.71508 23.375 5.875V8.375H22.75V7.75C22.7485 7.25318 22.5505 6.77712 22.1992 6.42581C21.8479 6.0745 21.3718 5.87648 20.875 5.875H7.125C6.6282 5.87648 6.1521 6.0745 5.8008 6.42581C5.4495 6.77712 5.2515 7.25318 5.25 7.75ZM6.5 12.75V7.75C6.5 7.58424 6.5658 7.42527 6.6831 7.30806C6.8003 7.19085 6.9592 7.125 7.125 7.125H20.875C21.0408 7.125 21.1997 7.19085 21.3169 7.30806C21.4342 7.42527 21.5 7.58424 21.5 7.75V12.75C21.5 14.7391 20.7098 16.6468 19.3033 18.0533C17.8968 19.4598 15.9891 20.25 14 20.25C12.0109 20.25 10.1032 19.4598 8.6967 18.0533C7.2902 16.6468 6.5 14.7391 6.5 12.75ZM16.9062 21.5438C16.9295 21.9397 16.8716 22.3363 16.736 22.7091C16.6005 23.0819 16.3902 23.4231 16.118 23.7117C15.8459 24.0002 15.5176 24.2302 15.1534 24.3873C14.7892 24.5445 14.3967 24.6256 14 24.6256C13.6033 24.6256 13.2108 24.5445 12.8466 24.3873C12.4824 24.2302 12.1541 24.0002 11.882 23.7117C11.6098 23.4231 11.3995 23.0819 11.264 22.7091C11.1284 22.3363 11.0705 21.9397 11.0938 21.5438L11.125 21.0062C12.9851 21.6646 15.0149 21.6646 16.875 21.0062L16.9062 21.5438ZM9 23.375H10.1875C10.5105 24.1176 11.0434 24.7498 11.7207 25.1938C12.3979 25.6378 13.1902 25.8743 14 25.8743C14.8098 25.8743 15.6021 25.6378 16.2793 25.1938C16.9566 24.7498 17.4895 24.1176 17.8125 23.375H19V29H16.95L16.4688 27.55C16.4257 27.4266 16.3455 27.3195 16.2392 27.2434C16.1329 27.1673 16.0057 27.126 15.875 27.125H12.125C11.9943 27.126 11.8671 27.1673 11.7608 27.2434C11.6545 27.3195 11.5743 27.4266 11.5312 27.55L11.05 29H9V23.375ZM15.6313 29H12.3687L12.575 28.375H15.425L15.6313 29ZM8.375 36.5V30.25H11.9313C11.4145 30.5913 10.9904 31.0554 10.697 31.6007C10.4037 32.1461 10.2501 32.7557 10.2501 33.375C10.2501 33.9943 10.4037 34.6039 10.697 35.1493C10.9904 35.6946 11.4145 36.1587 11.9313 36.5H8.375ZM14 35.875C13.5055 35.875 13.0222 35.7284 12.6111 35.4537C12.2 35.179 11.8795 34.7885 11.6903 34.3317C11.5011 33.8749 11.4516 33.3722 11.548 32.8873C11.6445 32.4023 11.8826 31.9569 12.2322 31.6072C12.5819 31.2576 13.0273 31.0195 13.5123 30.923C13.9972 30.8266 14.4999 30.8761 14.9567 31.0653C15.4135 31.2545 15.804 31.575 16.0787 31.9861C16.3534 32.3972 16.5 32.8805 16.5 33.375C16.5 34.038 16.2366 34.6739 15.7678 35.1428C15.2989 35.6116 14.663 35.875 14 35.875ZM19.625 36.5H16.0688C16.5855 36.1587 17.0096 35.6946 17.303 35.1493C17.5963 34.6039 17.7499 33.9943 17.7499 33.375C17.7499 32.7557 17.5963 32.1461 17.303 31.6007C17.0096 31.0554 16.5855 30.5913 16.0688 30.25H19.625V36.5ZM20.25 29V23.375H22.75C23.5788 23.375 24.3737 23.7042 24.9597 24.2903C25.5458 24.8763 25.875 25.6712 25.875 26.5V29.625H20.875C20.875 29.4592 20.8092 29.3003 20.6919 29.1831C20.5747 29.0658 20.4158 29 20.25 29ZM25.875 36.5H20.875V34H25.875V36.5ZM26.5 32.75H20.875V30.875H26.5V32.75Z" fill="white"/>
</svg>
