<svg width="10" height="10" viewBox="0 0 10 10" fill="none" xmlns="http://www.w3.org/2000/svg">
<path fill-rule="evenodd" clip-rule="evenodd" d="M2.65702 1.64126C2.37495 1.71102 2.17693 1.97097 2.17693 2.26983V4.9031V6.51639H1.78518C0.901937 6.51639 0.096339 7.17214 0.00872751 8.07829C-0.0924175 9.12102 0.698935 10 1.68902 10H2.48607C3.39281 10 4.12718 9.24218 4.12718 8.30813V7.98944V6.51639V4.41771L8.04975 3.45355V5.5772H7.77339C6.88944 5.5772 6.08455 6.23221 5.99623 7.1391C5.89508 8.18183 6.68643 9.06081 7.67651 9.06081H8.35889C9.26563 9.06081 10 8.30299 10 7.3682V7.04951V5.5772V2.96817V0.64699C10 0.228428 9.62035 -0.0799855 9.22574 0.0184132L2.65702 1.64126Z" fill="#C1C1C1"/>
</svg>
