<svg width="14" height="14" viewBox="0 0 14 14" fill="none" xmlns="http://www.w3.org/2000/svg">
<path fill-rule="evenodd" clip-rule="evenodd" d="M2.16785 6.156C2.16785 3.957 3.95685 2.168 6.15585 2.168C8.35485 2.168 10.1448 3.957 10.1448 6.156C10.1448 8.355 8.35485 10.144 6.15585 10.144C3.95685 10.144 2.16785 8.355 2.16785 6.156ZM13.5388 12.125L11.0328 9.619C11.7298 8.639 12.1448 7.446 12.1448 6.156C12.1448 2.854 9.45785 0.167999 6.15585 0.167999C2.85485 0.167999 0.167847 2.854 0.167847 6.156C0.167847 9.458 2.85485 12.144 6.15585 12.144C7.44585 12.144 8.63985 11.73 9.61885 11.033L12.1248 13.539C12.3198 13.734 12.5758 13.832 12.8318 13.832C13.0878 13.832 13.3438 13.734 13.5388 13.539C13.9298 13.148 13.9298 12.515 13.5388 12.125Z" fill="grey"/>
</svg>
