<svg width="13" height="12" viewBox="0 0 13 12" fill="none" xmlns="http://www.w3.org/2000/svg">
<path fill-rule="evenodd" clip-rule="evenodd" d="M2.04987 4.69343H8.89062L6.31462 2.11743C5.88762 1.68956 5.88762 0.997433 6.31462 0.570433C6.74162 0.143433 7.43375 0.143433 7.86162 0.570433L12.3049 5.01368C12.7319 5.44068 12.7319 6.13368 12.3049 6.56068L7.86162 11.0039C7.64725 11.2174 7.36812 11.3242 7.08812 11.3242C6.80725 11.3242 6.52812 11.2174 6.31462 11.0039C5.88762 10.5769 5.88762 9.88481 6.31462 9.45693L8.89062 6.88093H2.04987C1.44612 6.88093 0.956123 6.39093 0.956123 5.78718C0.956123 5.18343 1.44612 4.69343 2.04987 4.69343Z" fill="black"/>
</svg>
