<svg width="12" height="14" viewBox="0 0 12 14" fill="none" xmlns="http://www.w3.org/2000/svg">
<path fill-rule="evenodd" clip-rule="evenodd" d="M6.01732 7.80047L5.23562 7.23761C4.91179 7.00504 4.83911 6.55443 5.07169 6.23141C5.30426 5.90758 5.75487 5.8341 6.07789 6.06748L6.85959 6.63034C7.18342 6.86291 7.2569 7.31352 7.02352 7.63654C6.79095 7.95956 6.34034 8.03304 6.01732 7.80047ZM8.96648 8.14691L9.35733 8.42874L11.5272 5.41498C11.7339 5.12749 11.6693 4.72614 11.381 4.51941L10.4717 3.86369C10.2585 3.71106 9.9638 3.6828 9.75141 3.83623C9.32341 4.14552 8.72906 4.16248 8.27764 3.83704C7.82622 3.5116 7.65341 2.94228 7.81088 2.43918C7.88921 2.18884 7.76889 1.91831 7.5565 1.76487L6.6464 1.10996C6.35891 0.902416 5.95756 0.967828 5.75002 1.25531L3.58096 4.26907L3.97181 4.55091C4.29483 4.78348 4.36831 5.23409 4.13574 5.55711C3.90317 5.88013 3.45256 5.95361 3.12873 5.72104L2.73788 5.43921L0.472715 8.5846C0.265983 8.87289 0.330587 9.27343 0.618881 9.48097L1.52818 10.1359C1.74137 10.2893 2.03612 10.3176 2.24851 10.1642C2.67651 9.85486 3.27086 9.83791 3.72228 10.1633C4.1737 10.4888 4.34651 11.0573 4.18904 11.5612C4.11071 11.8107 4.23103 12.0821 4.44342 12.2355L5.35352 12.8904C5.64101 13.0972 6.04236 13.0326 6.24989 12.7443L8.51425 9.59887L8.1234 9.31704C7.80038 9.08447 7.72689 8.63386 7.95947 8.31084C8.19204 7.98782 8.64265 7.91433 8.96648 8.14691Z" fill="#C1C1C1"/>
</svg>
