<svg width="14" height="14" viewBox="0 0 14 14" fill="none" xmlns="http://www.w3.org/2000/svg">
<path fill-rule="evenodd" clip-rule="evenodd" d="M2.43791 8.33183C2.43791 6.53809 3.89706 5.07894 5.69007 5.07894C6.00269 5.07894 6.32305 5.09316 6.60963 5.21073C7.05257 5.39244 7.05257 5.93408 7.05257 5.93408L5.87603 7.11062C5.81453 7.10111 5.75376 7.09159 5.69007 7.09159C5.00625 7.09159 4.45056 7.64801 4.45056 8.33183C4.45056 9.01491 5.00625 9.57134 5.69007 9.57134C6.37388 9.57134 6.93031 9.01491 6.93031 8.33183C6.93031 8.26813 6.92079 8.20663 6.91127 8.14587L8.11564 6.94077L8.67938 7.06084C8.84997 7.46205 8.94222 7.88742 8.94222 8.33183C8.94222 10.1248 7.48307 11.584 5.69007 11.584C3.89706 11.584 2.43791 10.1248 2.43791 8.33183ZM9.41884 3.15488L9.566 3.84822C9.62604 4.13082 9.84715 4.35193 10.1305 4.41196L10.8231 4.55839L9.61872 5.76349L8.46121 5.51749L8.21448 4.35925L9.41884 3.15488ZM12.8123 4.64039C13.0019 4.45003 13.0722 4.17182 12.9961 3.91411C12.9199 3.65713 12.7091 3.46165 12.4462 3.40601L10.9 3.07801L10.5712 1.53173C10.5156 1.2689 10.3208 1.05804 10.0631 0.981897C9.80468 0.905755 9.5272 0.97604 9.33758 1.1664L6.89809 3.60515C6.85343 3.64981 6.81536 3.70033 6.78388 3.7545C6.42586 3.66884 6.06053 3.61467 5.69007 3.61467C3.08951 3.61467 0.973633 5.73054 0.973633 8.33183C0.973633 10.9324 3.08951 13.0483 5.69007 13.0483C8.29062 13.0483 10.4065 10.9324 10.4065 8.33183C10.4065 7.92989 10.3531 7.53819 10.2549 7.15821C10.2945 7.13186 10.3384 7.11428 10.3728 7.07987L12.8123 4.64039Z" fill="white"/>
</svg>
