<svg width="32" height="32" viewBox="0 0 32 32" fill="none" xmlns="http://www.w3.org/2000/svg">
<g clip-path="url(#clip0_238_1388)">
<path d="M8.20117 13.5523C8.36573 13.5523 8.52686 13.4853 8.64306 13.3691C8.75928 13.2526 8.82617 13.0915 8.82617 12.9273C8.82617 12.7627 8.75928 12.6016 8.64306 12.4853C8.52686 12.3691 8.36573 12.3022 8.20117 12.3022C8.03614 12.3022 7.87574 12.3691 7.75928 12.4853C7.64306 12.6016 7.57617 12.7627 7.57617 12.9273C7.57617 13.0915 7.64306 13.2526 7.75928 13.3691C7.87574 13.4853 8.03687 13.5523 8.20117 13.5523Z" fill="#59A4F2"/>
<path d="M17.1541 12.7246C17.0374 12.6084 16.8767 12.5415 16.7117 12.5415C16.5474 12.5415 16.386 12.6084 16.2698 12.7246C16.1536 12.8408 16.0867 13.0022 16.0867 13.1665C16.0867 13.3308 16.1536 13.4921 16.2698 13.6084C16.386 13.7246 16.5474 13.7914 16.7117 13.7914C16.8767 13.7914 17.0374 13.7246 17.1541 13.6084C17.2703 13.4921 17.3367 13.3316 17.3367 13.1665C17.3367 13.0022 17.2703 12.8408 17.1541 12.7246Z" fill="#59A4F2"/>
<path d="M18.8997 11.604C19.0642 11.604 19.2254 11.5371 19.3415 11.4209C19.4577 11.3047 19.5241 11.1433 19.5241 10.979C19.5241 10.8147 19.4577 10.6533 19.3415 10.5371C19.2254 10.4209 19.0642 10.354 18.8997 10.354C18.7349 10.354 18.5735 10.4209 18.4573 10.5371C18.341 10.6533 18.2742 10.8147 18.2742 10.979C18.2742 11.1433 18.341 11.3047 18.4573 11.4209C18.5735 11.5371 18.7349 11.604 18.8997 11.604Z" fill="#59A4F2"/>
<path d="M30.1249 15.3747H28.381L31.4509 12.3049C31.8049 11.9506 31.9999 11.4798 31.9999 10.979C31.9999 10.4783 31.8049 10.0073 31.4509 9.6533L28.6664 6.86888C28.4225 6.62498 28.0269 6.62498 27.7826 6.86888C27.4287 7.22313 26.9577 7.41819 26.457 7.41819C25.956 7.41819 25.4853 7.22313 25.1311 6.86888C24.7768 6.51488 24.5819 6.04393 24.5819 5.5432C24.5819 5.04223 24.777 4.57152 25.1311 4.21728C25.2482 4.10009 25.3142 3.94115 25.3142 3.77538C25.3142 3.60961 25.2482 3.45067 25.1311 3.33349L22.3469 0.549315C21.9927 0.195067 21.5219 0 21.0209 0C20.5202 0 20.0493 0.195067 19.6953 0.549315L9.37254 10.8718C9.1284 11.1157 9.1284 11.5114 9.37254 11.7555C9.61669 11.9998 10.0124 11.9998 10.2566 11.7555L20.5791 1.4331C20.6973 1.31494 20.8539 1.25 21.0209 1.25C21.188 1.25 21.3449 1.31494 21.4629 1.4331L23.8494 3.81933C23.5127 4.32616 23.332 4.92089 23.332 5.5432C23.332 6.37792 23.6569 7.16258 24.2473 7.75291C24.8376 8.34301 25.6223 8.66819 26.457 8.66819C27.0793 8.66819 27.6738 8.48753 28.1808 8.15087L30.5671 10.5371C30.8107 10.7807 30.8107 11.1772 30.5671 11.4209L26.6133 15.3747H23.8733L25.9267 13.3213C26.1706 13.0771 26.1706 12.6814 25.9267 12.4375L19.5627 6.07347C19.3185 5.82934 18.9229 5.82934 18.6786 6.07347L9.37743 15.3747H1.87499C0.841063 15.3747 0 16.2158 0 17.2497V21.1872C0 21.5322 0.279785 21.8122 0.624999 21.8122C1.65894 21.8122 2.5 22.6533 2.5 23.6872C2.5 24.7209 1.65894 25.5622 0.624999 25.5622C0.279785 25.5622 0 25.8419 0 26.1872V30.1247C0 31.1584 0.841063 31.9997 1.87499 31.9997H30.1249C31.1589 31.9997 31.9999 31.1584 31.9999 30.1247V26.1872C31.9999 25.8419 31.7201 25.5622 31.375 25.5622C30.341 25.5622 29.5 24.7209 29.5 23.6872C29.5 22.6533 30.341 21.8122 31.375 21.8122C31.7201 21.8122 31.9999 21.5322 31.9999 21.1872V17.2497C31.9999 16.2158 31.1589 15.3747 30.1249 15.3747ZM19.1206 7.39915L24.6008 12.8793L22.1054 15.3747H19.6306L21.4629 13.5422C21.707 13.2983 21.707 12.9025 21.4629 12.6584C21.219 12.4143 20.8232 12.4143 20.5791 12.6584L17.8627 15.3745H11.1452L19.1206 7.39915ZM30.7499 20.6249C29.3254 20.9152 28.2499 22.1779 28.2499 23.6872C28.2499 25.1962 29.3254 26.459 30.7499 26.7495V30.1247C30.7499 30.4691 30.4697 30.7497 30.1249 30.7497H1.87499C1.53027 30.7497 1.25 30.4691 1.25 30.1247V26.7495C2.67456 26.459 3.74999 25.1962 3.74999 23.6872C3.74999 22.1779 2.67456 20.9155 1.25 20.6249V17.2497C1.25 16.905 1.53027 16.6247 1.87499 16.6247H30.1249C30.4697 16.6247 30.7499 16.905 30.7499 17.2497V20.6249Z" fill="#59A4F2"/>
<path d="M13.3481 22.629C13.4643 22.5125 13.5312 22.3514 13.5312 22.187C13.5312 22.0225 13.4643 21.8613 13.3481 21.7452C13.2319 21.629 13.0705 21.562 12.9063 21.562C12.7419 21.562 12.5806 21.629 12.4643 21.7452C12.3481 21.8613 12.2812 22.0225 12.2812 22.187C12.2812 22.3514 12.3481 22.5125 12.4643 22.629C12.5806 22.7452 12.7419 22.8121 12.9063 22.8121C13.0705 22.8121 13.2319 22.7452 13.3481 22.629Z" fill="#59A4F2"/>
<path d="M19.5356 22.629C19.6518 22.5125 19.7187 22.3514 19.7187 22.187C19.7187 22.0225 19.6518 21.8613 19.5356 21.7452C19.4194 21.629 19.258 21.562 19.0937 21.562C18.9294 21.562 18.7681 21.629 18.6518 21.7452C18.5356 21.8613 18.4688 22.0225 18.4688 22.187C18.4688 22.3514 18.5356 22.5125 18.6518 22.629C18.7681 22.7452 18.9294 22.8121 19.0937 22.8121C19.258 22.8121 19.4194 22.7452 19.5356 22.629Z" fill="#59A4F2"/>
<path d="M16.442 22.629C16.5581 22.5125 16.6251 22.3514 16.6251 22.187C16.6251 22.0225 16.5581 21.8613 16.442 21.7452C16.3257 21.629 16.1644 21.562 16 21.562C15.8357 21.562 15.6743 21.629 15.5581 21.7452C15.442 21.8613 15.375 22.0225 15.375 22.187C15.375 22.3514 15.442 22.5125 15.5581 22.629C15.6743 22.7452 15.8357 22.8121 16 22.8121C16.1644 22.8121 16.3257 22.7452 16.442 22.629Z" fill="#59A4F2"/>
<path d="M9.81251 22.8121C9.9768 22.8121 10.1382 22.7452 10.2544 22.629C10.3706 22.5125 10.4375 22.3514 10.4375 22.187C10.4375 22.0225 10.3706 21.8613 10.2544 21.7452C10.1382 21.629 9.9768 21.562 9.81251 21.562C9.6482 21.562 9.48681 21.629 9.37061 21.7452C9.2544 21.8613 9.1875 22.0225 9.1875 22.187C9.1875 22.3514 9.2544 22.5125 9.37061 22.629C9.48681 22.7452 9.6482 22.8121 9.81251 22.8121Z" fill="#59A4F2"/>
<path d="M22.6294 22.629C22.7456 22.5125 22.8124 22.3514 22.8124 22.187C22.8124 22.0225 22.7456 21.8613 22.6294 21.7452C22.5131 21.629 22.3518 21.562 22.1875 21.562C22.0232 21.562 21.8618 21.629 21.7456 21.7452C21.6294 21.8613 21.5625 22.0225 21.5625 22.187C21.5625 22.3514 21.6294 22.5125 21.7456 22.629C21.8618 22.7452 22.0232 22.8121 22.1875 22.8121C22.3518 22.8121 22.5131 22.7452 22.6294 22.629Z" fill="#59A4F2"/>
<path d="M9.81251 25.8121H22.1874C22.5327 25.8121 22.8125 25.5321 22.8125 25.187C22.8125 24.8419 22.5327 24.562 22.1874 24.562H9.81251C9.46728 24.562 9.1875 24.8419 9.1875 25.187C9.1875 25.5321 9.46728 25.8121 9.81251 25.8121Z" fill="#59A4F2"/>
<path d="M12.0825 27.562C11.9182 27.562 11.7568 27.629 11.6406 27.7452C11.5244 27.8613 11.4575 28.0225 11.4575 28.187C11.4575 28.3514 11.5244 28.5125 11.6406 28.629C11.7568 28.7452 11.9182 28.8121 12.0825 28.8121C12.2476 28.8121 12.4081 28.7452 12.5244 28.629C12.6413 28.5125 12.7075 28.3514 12.7075 28.187C12.7075 28.0225 12.6413 27.8613 12.5244 27.7452C12.4081 27.629 12.2476 27.562 12.0825 27.562Z" fill="#59A4F2"/>
<path d="M25.5 18.562H6.50001C6.15479 18.562 5.875 18.8419 5.875 19.187V28.187C5.875 28.5321 6.15479 28.8121 6.50001 28.8121H9.10351C9.44873 28.8121 9.72851 28.5321 9.72851 28.187C9.72851 27.8418 9.44873 27.562 9.10351 27.562H7.125V19.8121H24.875V27.562H14.7285C14.3833 27.562 14.1035 27.8418 14.1035 28.187C14.1035 28.5321 14.3833 28.8121 14.7285 28.8121H25.5C25.8451 28.8121 26.1249 28.5321 26.1249 28.187V19.187C26.1249 18.8419 25.8451 18.562 25.5 18.562Z" fill="#59A4F2"/>
</g>
<defs>
<clipPath id="clip0_238_1388">
<rect width="32" height="32" fill="white"/>
</clipPath>
</defs>
</svg>
