<svg width="265" height="332" viewBox="0 0 265 332" fill="none" xmlns="http://www.w3.org/2000/svg">
<circle cx="87" cy="259" r="10" fill="#59A4F2"/>
<path d="M130.117 261.555C130.117 262.576 129.771 263.406 129.078 264.047C128.391 264.682 127.5 265 126.406 265H122.117V253.727H129.023V255.234H123.867V258.125H126.367C127.471 258.125 128.372 258.443 129.07 259.078C129.768 259.714 130.117 260.539 130.117 261.555ZM123.867 263.516H125.961C126.716 263.516 127.299 263.346 127.711 263.008C128.122 262.669 128.328 262.185 128.328 261.555C128.328 260.924 128.12 260.44 127.703 260.102C127.292 259.758 126.708 259.586 125.953 259.586H123.867V263.516ZM138.25 264.016C137.542 264.776 136.596 265.156 135.414 265.156C134.232 265.156 133.286 264.776 132.578 264.016C131.87 263.25 131.516 262.208 131.516 260.891C131.516 259.578 131.87 258.542 132.578 257.781C133.286 257.016 134.232 256.633 135.414 256.633C136.596 256.633 137.542 257.016 138.25 257.781C138.958 258.542 139.312 259.578 139.312 260.891C139.312 262.208 138.958 263.25 138.25 264.016ZM135.414 263.766C136.086 263.766 136.617 263.513 137.008 263.008C137.398 262.503 137.594 261.797 137.594 260.891C137.594 259.99 137.396 259.286 137 258.781C136.609 258.276 136.081 258.023 135.414 258.023C134.747 258.023 134.216 258.276 133.82 258.781C133.43 259.286 133.234 259.99 133.234 260.891C133.234 261.797 133.43 262.503 133.82 263.008C134.216 263.513 134.747 263.766 135.414 263.766ZM142.953 261.258C142.922 261.747 142.872 262.18 142.805 262.555C142.737 262.93 142.638 263.281 142.508 263.609C142.378 263.932 142.219 264.201 142.031 264.414C141.844 264.622 141.609 264.786 141.328 264.906C141.052 265.021 140.732 265.078 140.367 265.078C140.138 265.078 139.948 265.049 139.797 264.992V263.508C139.938 263.549 140.086 263.57 140.242 263.57C140.617 263.57 140.893 263.367 141.07 262.961C141.247 262.555 141.362 261.964 141.414 261.188L141.695 256.781H147.391V265H145.711V258.117H143.18L142.953 261.258ZM152.305 260.641H150.883V263.672H152.305C152.789 263.672 153.174 263.534 153.461 263.258C153.753 262.977 153.898 262.609 153.898 262.156C153.898 261.698 153.753 261.331 153.461 261.055C153.169 260.779 152.784 260.641 152.305 260.641ZM149.203 265V256.781H150.883V259.32H152.453C153.406 259.32 154.164 259.578 154.727 260.094C155.294 260.604 155.578 261.292 155.578 262.156C155.578 263.026 155.294 263.719 154.727 264.234C154.164 264.745 153.406 265 152.453 265H149.203ZM156.984 265V256.781H158.664V263.664H161.422V256.781H163.102V263.664H165.859V256.781H167.539V265H156.984ZM175.734 264.016C175.026 264.776 174.081 265.156 172.898 265.156C171.716 265.156 170.771 264.776 170.062 264.016C169.354 263.25 169 262.208 169 260.891C169 259.578 169.354 258.542 170.062 257.781C170.771 257.016 171.716 256.633 172.898 256.633C174.081 256.633 175.026 257.016 175.734 257.781C176.443 258.542 176.797 259.578 176.797 260.891C176.797 262.208 176.443 263.25 175.734 264.016ZM172.898 263.766C173.57 263.766 174.102 263.513 174.492 263.008C174.883 262.503 175.078 261.797 175.078 260.891C175.078 259.99 174.88 259.286 174.484 258.781C174.094 258.276 173.565 258.023 172.898 258.023C172.232 258.023 171.701 258.276 171.305 258.781C170.914 259.286 170.719 259.99 170.719 260.891C170.719 261.797 170.914 262.503 171.305 263.008C171.701 263.513 172.232 263.766 172.898 263.766ZM179.914 265H178.25V256.781H179.914V262.539H179.977L183.773 256.781H185.438V265H183.773V259.227H183.711L179.914 265ZM179.367 253.172H180.508C180.513 253.62 180.648 253.992 180.914 254.289C181.18 254.581 181.529 254.727 181.961 254.727C182.398 254.727 182.75 254.581 183.016 254.289C183.281 253.992 183.417 253.62 183.422 253.172H184.562C184.562 253.911 184.323 254.51 183.844 254.969C183.365 255.422 182.737 255.648 181.961 255.648C181.19 255.648 180.565 255.422 180.086 254.969C179.607 254.51 179.367 253.911 179.367 253.172ZM195.969 263.664V258.117H193.109L192.883 261.258C192.815 262.31 192.602 263.091 192.242 263.602V263.664H195.969ZM191.297 267.156H189.742V263.664H190.406C190.948 263.326 191.266 262.5 191.359 261.188L191.656 256.781H197.648V263.664H198.922V267.156H197.359V265H191.297V267.156ZM203.453 258.008H201.727V260.164H203.289C204.242 260.164 204.719 259.799 204.719 259.07C204.719 258.732 204.609 258.471 204.391 258.289C204.172 258.102 203.859 258.008 203.453 258.008ZM203.398 261.344H201.727V263.773H203.586C204.065 263.773 204.43 263.672 204.68 263.469C204.93 263.26 205.055 262.958 205.055 262.562C205.055 261.75 204.503 261.344 203.398 261.344ZM200.062 265V256.781H203.797C204.599 256.781 205.227 256.969 205.68 257.344C206.138 257.714 206.367 258.224 206.367 258.875C206.367 259.302 206.232 259.688 205.961 260.031C205.695 260.37 205.365 260.576 204.969 260.648V260.711C205.5 260.784 205.927 260.995 206.25 261.344C206.573 261.688 206.734 262.117 206.734 262.633C206.734 263.357 206.474 263.932 205.953 264.359C205.438 264.786 204.734 265 203.844 265H200.062ZM214.609 264.016C213.901 264.776 212.956 265.156 211.773 265.156C210.591 265.156 209.646 264.776 208.938 264.016C208.229 263.25 207.875 262.208 207.875 260.891C207.875 259.578 208.229 258.542 208.938 257.781C209.646 257.016 210.591 256.633 211.773 256.633C212.956 256.633 213.901 257.016 214.609 257.781C215.318 258.542 215.672 259.578 215.672 260.891C215.672 262.208 215.318 263.25 214.609 264.016ZM211.773 263.766C212.445 263.766 212.977 263.513 213.367 263.008C213.758 262.503 213.953 261.797 213.953 260.891C213.953 259.99 213.755 259.286 213.359 258.781C212.969 258.276 212.44 258.023 211.773 258.023C211.107 258.023 210.576 258.276 210.18 258.781C209.789 259.286 209.594 259.99 209.594 260.891C209.594 261.797 209.789 262.503 210.18 263.008C210.576 263.513 211.107 263.766 211.773 263.766ZM221.414 256.648C222.461 256.648 223.299 257.031 223.93 257.797C224.56 258.562 224.875 259.594 224.875 260.891C224.875 262.188 224.562 263.221 223.938 263.992C223.312 264.758 222.482 265.141 221.445 265.141C220.862 265.141 220.344 265.008 219.891 264.742C219.443 264.477 219.099 264.112 218.859 263.648H218.82V267.719H217.133V256.781H218.766V258.195H218.797C219.042 257.716 219.393 257.339 219.852 257.062C220.31 256.786 220.831 256.648 221.414 256.648ZM220.969 263.711C221.635 263.711 222.164 263.458 222.555 262.953C222.945 262.443 223.141 261.755 223.141 260.891C223.141 260.031 222.945 259.346 222.555 258.836C222.164 258.326 221.635 258.07 220.969 258.07C220.323 258.07 219.802 258.328 219.406 258.844C219.01 259.359 218.812 260.042 218.812 260.891C218.812 261.745 219.008 262.43 219.398 262.945C219.794 263.456 220.318 263.711 220.969 263.711ZM231.203 258.586C230.833 258.19 230.357 257.992 229.773 257.992C229.19 257.992 228.706 258.193 228.32 258.594C227.935 258.99 227.721 259.503 227.68 260.133H231.789C231.768 259.497 231.573 258.982 231.203 258.586ZM231.781 262.586H233.383C233.263 263.341 232.878 263.958 232.227 264.438C231.576 264.917 230.781 265.156 229.844 265.156C228.641 265.156 227.693 264.779 227 264.023C226.312 263.263 225.969 262.232 225.969 260.93C225.969 259.638 226.312 258.599 227 257.812C227.693 257.026 228.617 256.633 229.773 256.633C230.909 256.633 231.81 257.005 232.477 257.75C233.143 258.49 233.477 259.484 233.477 260.734V261.312H227.672V261.414C227.672 262.133 227.872 262.708 228.273 263.141C228.674 263.573 229.211 263.789 229.883 263.789C230.357 263.789 230.763 263.68 231.102 263.461C231.44 263.242 231.667 262.951 231.781 262.586ZM243.148 267.156H241.594V265H234.922V256.781H236.602V263.664H240.188V256.781H241.867V263.664H243.148V267.156Z" fill="#333333"/>
<circle cx="87" cy="73" r="10" fill="#F1564A"/>
<path d="M126.422 79.2109C125.156 79.2109 124.099 78.8984 123.25 78.2734C122.406 77.6484 121.865 76.7786 121.625 75.6641H123.383C123.581 76.2943 123.945 76.7839 124.477 77.1328C125.013 77.4818 125.659 77.6562 126.414 77.6562C127.367 77.6562 128.146 77.3255 128.75 76.6641C129.354 76.0026 129.682 75.1094 129.734 73.9844H124.922V72.5156H129.711C129.628 71.4635 129.286 70.6276 128.688 70.0078C128.089 69.3828 127.333 69.0703 126.422 69.0703C125.688 69.0703 125.042 69.2708 124.484 69.6719C123.932 70.0729 123.565 70.6068 123.383 71.2734H121.625C121.812 70.1484 122.346 69.2422 123.227 68.5547C124.112 67.862 125.177 67.5156 126.422 67.5156C127.99 67.5156 129.234 68.0443 130.156 69.1016C131.083 70.1536 131.547 71.5729 131.547 73.3594C131.547 75.1562 131.086 76.5807 130.164 77.6328C129.247 78.6849 128 79.2109 126.422 79.2109ZM137.461 70.6484C138.508 70.6484 139.346 71.0312 139.977 71.7969C140.607 72.5625 140.922 73.5938 140.922 74.8906C140.922 76.1875 140.609 77.2214 139.984 77.9922C139.359 78.7578 138.529 79.1406 137.492 79.1406C136.909 79.1406 136.391 79.0078 135.938 78.7422C135.49 78.4766 135.146 78.112 134.906 77.6484H134.867V81.7188H133.18V70.7812H134.812V72.1953H134.844C135.089 71.7161 135.44 71.3385 135.898 71.0625C136.357 70.7865 136.878 70.6484 137.461 70.6484ZM137.016 77.7109C137.682 77.7109 138.211 77.4583 138.602 76.9531C138.992 76.4427 139.188 75.7552 139.188 74.8906C139.188 74.0312 138.992 73.3464 138.602 72.8359C138.211 72.3255 137.682 72.0703 137.016 72.0703C136.37 72.0703 135.849 72.3281 135.453 72.8438C135.057 73.3594 134.859 74.0417 134.859 74.8906C134.859 75.7448 135.055 76.4297 135.445 76.9453C135.841 77.4557 136.365 77.7109 137.016 77.7109ZM144 79H142.375V70.7812H144.492L147.125 76.8047H147.188L149.836 70.7812H151.906V79H150.266V73.2969H150.211L147.75 78.6797H146.516L144.055 73.2969H144V79ZM155.383 79H153.719V70.7812H155.383V76.5391H155.445L159.242 70.7812H160.906V79H159.242V73.2266H159.18L155.383 79ZM168.969 70.7812V72.1172H166.391V79H164.711V72.1172H162.133V70.7812H168.969ZM172.82 77.8047C173.414 77.8047 173.911 77.625 174.312 77.2656C174.719 76.901 174.922 76.4531 174.922 75.9219V75.2734L172.898 75.3984C172.393 75.4349 172.003 75.5599 171.727 75.7734C171.456 75.9818 171.32 76.263 171.32 76.6172C171.32 76.9766 171.456 77.2656 171.727 77.4844C172.003 77.6979 172.367 77.8047 172.82 77.8047ZM172.352 79.1406C171.544 79.1406 170.885 78.9115 170.375 78.4531C169.87 77.9948 169.617 77.3984 169.617 76.6641C169.617 75.9453 169.883 75.375 170.414 74.9531C170.945 74.526 171.698 74.2865 172.672 74.2344L174.922 74.1016V73.4688C174.922 73.0104 174.776 72.6536 174.484 72.3984C174.193 72.138 173.789 72.0078 173.273 72.0078C172.794 72.0078 172.404 72.1146 172.102 72.3281C171.805 72.5417 171.617 72.8359 171.539 73.2109H169.945C169.992 72.4505 170.32 71.8307 170.93 71.3516C171.539 70.8724 172.341 70.6328 173.336 70.6328C174.331 70.6328 175.122 70.8776 175.711 71.3672C176.305 71.8568 176.602 72.513 176.602 73.3359V79H174.984V77.6484H174.945C174.711 78.1016 174.354 78.4635 173.875 78.7344C173.401 79.0052 172.893 79.1406 172.352 79.1406ZM186.094 74.6406L189.602 79H187.508L184.484 75.2109H184.422V79H182.758V75.2109H182.703L179.68 79H177.617L181.102 74.6719L177.711 70.7812H179.719L182.703 74.2969H182.758V70.7812H184.422V74.2969H184.484L187.469 70.7812H189.461L186.094 74.6406Z" fill="#333333"/>
<circle cx="87" cy="197" r="10" fill="#59A4F2"/>
<path d="M126.422 203.211C125.156 203.211 124.099 202.898 123.25 202.273C122.406 201.648 121.865 200.779 121.625 199.664H123.383C123.581 200.294 123.945 200.784 124.477 201.133C125.013 201.482 125.659 201.656 126.414 201.656C127.367 201.656 128.146 201.326 128.75 200.664C129.354 200.003 129.682 199.109 129.734 197.984H124.922V196.516H129.711C129.628 195.464 129.286 194.628 128.688 194.008C128.089 193.383 127.333 193.07 126.422 193.07C125.688 193.07 125.042 193.271 124.484 193.672C123.932 194.073 123.565 194.607 123.383 195.273H121.625C121.812 194.148 122.346 193.242 123.227 192.555C124.112 191.862 125.177 191.516 126.422 191.516C127.99 191.516 129.234 192.044 130.156 193.102C131.083 194.154 131.547 195.573 131.547 197.359C131.547 199.156 131.086 200.581 130.164 201.633C129.247 202.685 128 203.211 126.422 203.211ZM137.461 194.648C138.508 194.648 139.346 195.031 139.977 195.797C140.607 196.562 140.922 197.594 140.922 198.891C140.922 200.188 140.609 201.221 139.984 201.992C139.359 202.758 138.529 203.141 137.492 203.141C136.909 203.141 136.391 203.008 135.938 202.742C135.49 202.477 135.146 202.112 134.906 201.648H134.867V205.719H133.18V194.781H134.812V196.195H134.844C135.089 195.716 135.44 195.339 135.898 195.062C136.357 194.786 136.878 194.648 137.461 194.648ZM137.016 201.711C137.682 201.711 138.211 201.458 138.602 200.953C138.992 200.443 139.188 199.755 139.188 198.891C139.188 198.031 138.992 197.346 138.602 196.836C138.211 196.326 137.682 196.07 137.016 196.07C136.37 196.07 135.849 196.328 135.453 196.844C135.057 197.359 134.859 198.042 134.859 198.891C134.859 199.745 135.055 200.43 135.445 200.945C135.841 201.456 136.365 201.711 137.016 201.711ZM144 203H142.375V194.781H144.492L147.125 200.805H147.188L149.836 194.781H151.906V203H150.266V197.297H150.211L147.75 202.68H146.516L144.055 197.297H144V203ZM155.383 203H153.719V194.781H155.383V200.539H155.445L159.242 194.781H160.906V203H159.242V197.227H159.18L155.383 203ZM168.969 194.781V196.117H166.391V203H164.711V196.117H162.133V194.781H168.969ZM172.82 201.805C173.414 201.805 173.911 201.625 174.312 201.266C174.719 200.901 174.922 200.453 174.922 199.922V199.273L172.898 199.398C172.393 199.435 172.003 199.56 171.727 199.773C171.456 199.982 171.32 200.263 171.32 200.617C171.32 200.977 171.456 201.266 171.727 201.484C172.003 201.698 172.367 201.805 172.82 201.805ZM172.352 203.141C171.544 203.141 170.885 202.911 170.375 202.453C169.87 201.995 169.617 201.398 169.617 200.664C169.617 199.945 169.883 199.375 170.414 198.953C170.945 198.526 171.698 198.286 172.672 198.234L174.922 198.102V197.469C174.922 197.01 174.776 196.654 174.484 196.398C174.193 196.138 173.789 196.008 173.273 196.008C172.794 196.008 172.404 196.115 172.102 196.328C171.805 196.542 171.617 196.836 171.539 197.211H169.945C169.992 196.451 170.32 195.831 170.93 195.352C171.539 194.872 172.341 194.633 173.336 194.633C174.331 194.633 175.122 194.878 175.711 195.367C176.305 195.857 176.602 196.513 176.602 197.336V203H174.984V201.648H174.945C174.711 202.102 174.354 202.464 173.875 202.734C173.401 203.005 172.893 203.141 172.352 203.141ZM186.094 198.641L189.602 203H187.508L184.484 199.211H184.422V203H182.758V199.211H182.703L179.68 203H177.617L181.102 198.672L177.711 194.781H179.719L182.703 198.297H182.758V194.781H184.422V198.297H184.484L187.469 194.781H189.461L186.094 198.641Z" fill="#333333"/>
<circle cx="87" cy="321" r="10" fill="#59A4F2"/>
<path d="M126.422 327.211C125.156 327.211 124.099 326.898 123.25 326.273C122.406 325.648 121.865 324.779 121.625 323.664H123.383C123.581 324.294 123.945 324.784 124.477 325.133C125.013 325.482 125.659 325.656 126.414 325.656C127.367 325.656 128.146 325.326 128.75 324.664C129.354 324.003 129.682 323.109 129.734 321.984H124.922V320.516H129.711C129.628 319.464 129.286 318.628 128.688 318.008C128.089 317.383 127.333 317.07 126.422 317.07C125.688 317.07 125.042 317.271 124.484 317.672C123.932 318.073 123.565 318.607 123.383 319.273H121.625C121.812 318.148 122.346 317.242 123.227 316.555C124.112 315.862 125.177 315.516 126.422 315.516C127.99 315.516 129.234 316.044 130.156 317.102C131.083 318.154 131.547 319.573 131.547 321.359C131.547 323.156 131.086 324.581 130.164 325.633C129.247 326.685 128 327.211 126.422 327.211ZM137.461 318.648C138.508 318.648 139.346 319.031 139.977 319.797C140.607 320.562 140.922 321.594 140.922 322.891C140.922 324.188 140.609 325.221 139.984 325.992C139.359 326.758 138.529 327.141 137.492 327.141C136.909 327.141 136.391 327.008 135.938 326.742C135.49 326.477 135.146 326.112 134.906 325.648H134.867V329.719H133.18V318.781H134.812V320.195H134.844C135.089 319.716 135.44 319.339 135.898 319.062C136.357 318.786 136.878 318.648 137.461 318.648ZM137.016 325.711C137.682 325.711 138.211 325.458 138.602 324.953C138.992 324.443 139.188 323.755 139.188 322.891C139.188 322.031 138.992 321.346 138.602 320.836C138.211 320.326 137.682 320.07 137.016 320.07C136.37 320.07 135.849 320.328 135.453 320.844C135.057 321.359 134.859 322.042 134.859 322.891C134.859 323.745 135.055 324.43 135.445 324.945C135.841 325.456 136.365 325.711 137.016 325.711ZM144 327H142.375V318.781H144.492L147.125 324.805H147.188L149.836 318.781H151.906V327H150.266V321.297H150.211L147.75 326.68H146.516L144.055 321.297H144V327ZM155.383 327H153.719V318.781H155.383V324.539H155.445L159.242 318.781H160.906V327H159.242V321.227H159.18L155.383 327ZM168.969 318.781V320.117H166.391V327H164.711V320.117H162.133V318.781H168.969ZM172.82 325.805C173.414 325.805 173.911 325.625 174.312 325.266C174.719 324.901 174.922 324.453 174.922 323.922V323.273L172.898 323.398C172.393 323.435 172.003 323.56 171.727 323.773C171.456 323.982 171.32 324.263 171.32 324.617C171.32 324.977 171.456 325.266 171.727 325.484C172.003 325.698 172.367 325.805 172.82 325.805ZM172.352 327.141C171.544 327.141 170.885 326.911 170.375 326.453C169.87 325.995 169.617 325.398 169.617 324.664C169.617 323.945 169.883 323.375 170.414 322.953C170.945 322.526 171.698 322.286 172.672 322.234L174.922 322.102V321.469C174.922 321.01 174.776 320.654 174.484 320.398C174.193 320.138 173.789 320.008 173.273 320.008C172.794 320.008 172.404 320.115 172.102 320.328C171.805 320.542 171.617 320.836 171.539 321.211H169.945C169.992 320.451 170.32 319.831 170.93 319.352C171.539 318.872 172.341 318.633 173.336 318.633C174.331 318.633 175.122 318.878 175.711 319.367C176.305 319.857 176.602 320.513 176.602 321.336V327H174.984V325.648H174.945C174.711 326.102 174.354 326.464 173.875 326.734C173.401 327.005 172.893 327.141 172.352 327.141ZM186.094 322.641L189.602 327H187.508L184.484 323.211H184.422V327H182.758V323.211H182.703L179.68 327H177.617L181.102 322.672L177.711 318.781H179.719L182.703 322.297H182.758V318.781H184.422V322.297H184.484L187.469 318.781H189.461L186.094 322.641Z" fill="#333333"/>
<path d="M4.17188 42.8984V41.5234H5.53125C6.13542 41.5234 6.6276 41.3516 7.00781 41.0078C7.39323 40.6641 7.58594 40.2266 7.58594 39.6953C7.58594 39.1589 7.40625 38.7344 7.04688 38.4219C6.69271 38.1094 6.1875 37.9531 5.53125 37.9531C4.92188 37.9531 4.42708 38.1172 4.04688 38.4453C3.66667 38.7682 3.45052 39.2083 3.39844 39.7656H1.75C1.81771 38.776 2.19792 37.987 2.89062 37.3984C3.58854 36.8099 4.49479 36.5156 5.60938 36.5156C6.68229 36.5156 7.5651 36.7917 8.25781 37.3438C8.95052 37.8906 9.29688 38.5964 9.29688 39.4609C9.29688 40.1589 9.08594 40.7474 8.66406 41.2266C8.24219 41.7005 7.67969 42 6.97656 42.125V42.1562C7.83073 42.2135 8.50781 42.487 9.00781 42.9766C9.51302 43.4661 9.76562 44.1042 9.76562 44.8906C9.76562 45.8646 9.3724 46.6615 8.58594 47.2812C7.79948 47.901 6.8125 48.2109 5.625 48.2109C4.42188 48.2109 3.45052 47.9115 2.71094 47.3125C1.97656 46.7083 1.58073 45.9141 1.52344 44.9297H3.20312C3.26042 45.4766 3.5026 45.9167 3.92969 46.25C4.36198 46.5833 4.92708 46.75 5.625 46.75C6.3125 46.75 6.8776 46.5755 7.32031 46.2266C7.76302 45.8724 7.98438 45.4193 7.98438 44.8672C7.98438 44.2578 7.76823 43.7786 7.33594 43.4297C6.90885 43.0755 6.32292 42.8984 5.57812 42.8984H4.17188ZM18.6641 46.6328C17.9089 47.6849 16.8594 48.2109 15.5156 48.2109C14.1719 48.2109 13.1172 47.6875 12.3516 46.6406C11.5911 45.5885 11.2109 44.1589 11.2109 42.3516C11.2109 40.5599 11.5938 39.1406 12.3594 38.0938C13.125 37.0417 14.1771 36.5156 15.5156 36.5156C16.8542 36.5156 17.9036 37.0391 18.6641 38.0859C19.4245 39.1276 19.8047 40.5469 19.8047 42.3438C19.8047 44.151 19.4245 45.5807 18.6641 46.6328ZM13.6484 45.5781C14.0911 46.3542 14.7135 46.7422 15.5156 46.7422C16.3177 46.7422 16.9375 46.3542 17.375 45.5781C17.8177 44.7969 18.0391 43.7214 18.0391 42.3516C18.0391 40.9974 17.8151 39.9323 17.3672 39.1562C16.9245 38.375 16.3073 37.9844 15.5156 37.9844C14.724 37.9844 14.1042 38.375 13.6562 39.1562C13.2083 39.9375 12.9844 41.0026 12.9844 42.3516C12.9844 43.7214 13.2057 44.7969 13.6484 45.5781ZM26.2812 48H24.6562V39.7812H26.7734L29.4062 45.8047H29.4688L32.1172 39.7812H34.1875V48H32.5469V42.2969H32.4922L30.0312 47.6797H28.7969L26.3359 42.2969H26.2812V48ZM37.6641 48H36V39.7812H37.6641V45.5391H37.7266L41.5234 39.7812H43.1875V48H41.5234V42.2266H41.4609L37.6641 48ZM50.3984 48V44.4219H46.6797V48H45V39.7812H46.6797V43.0938H50.3984V39.7812H52.0781V48H50.3984Z" fill="#333333"/>
<path d="M4.17188 166.898V165.523H5.53125C6.13542 165.523 6.6276 165.352 7.00781 165.008C7.39323 164.664 7.58594 164.227 7.58594 163.695C7.58594 163.159 7.40625 162.734 7.04688 162.422C6.69271 162.109 6.1875 161.953 5.53125 161.953C4.92188 161.953 4.42708 162.117 4.04688 162.445C3.66667 162.768 3.45052 163.208 3.39844 163.766H1.75C1.81771 162.776 2.19792 161.987 2.89062 161.398C3.58854 160.81 4.49479 160.516 5.60938 160.516C6.68229 160.516 7.5651 160.792 8.25781 161.344C8.95052 161.891 9.29688 162.596 9.29688 163.461C9.29688 164.159 9.08594 164.747 8.66406 165.227C8.24219 165.701 7.67969 166 6.97656 166.125V166.156C7.83073 166.214 8.50781 166.487 9.00781 166.977C9.51302 167.466 9.76562 168.104 9.76562 168.891C9.76562 169.865 9.3724 170.661 8.58594 171.281C7.79948 171.901 6.8125 172.211 5.625 172.211C4.42188 172.211 3.45052 171.911 2.71094 171.312C1.97656 170.708 1.58073 169.914 1.52344 168.93H3.20312C3.26042 169.477 3.5026 169.917 3.92969 170.25C4.36198 170.583 4.92708 170.75 5.625 170.75C6.3125 170.75 6.8776 170.576 7.32031 170.227C7.76302 169.872 7.98438 169.419 7.98438 168.867C7.98438 168.258 7.76823 167.779 7.33594 167.43C6.90885 167.076 6.32292 166.898 5.57812 166.898H4.17188ZM18.6641 170.633C17.9089 171.685 16.8594 172.211 15.5156 172.211C14.1719 172.211 13.1172 171.688 12.3516 170.641C11.5911 169.589 11.2109 168.159 11.2109 166.352C11.2109 164.56 11.5938 163.141 12.3594 162.094C13.125 161.042 14.1771 160.516 15.5156 160.516C16.8542 160.516 17.9036 161.039 18.6641 162.086C19.4245 163.128 19.8047 164.547 19.8047 166.344C19.8047 168.151 19.4245 169.581 18.6641 170.633ZM13.6484 169.578C14.0911 170.354 14.7135 170.742 15.5156 170.742C16.3177 170.742 16.9375 170.354 17.375 169.578C17.8177 168.797 18.0391 167.721 18.0391 166.352C18.0391 164.997 17.8151 163.932 17.3672 163.156C16.9245 162.375 16.3073 161.984 15.5156 161.984C14.724 161.984 14.1042 162.375 13.6562 163.156C13.2083 163.938 12.9844 165.003 12.9844 166.352C12.9844 167.721 13.2057 168.797 13.6484 169.578ZM26.2812 172H24.6562V163.781H26.7734L29.4062 169.805H29.4688L32.1172 163.781H34.1875V172H32.5469V166.297H32.4922L30.0312 171.68H28.7969L26.3359 166.297H26.2812V172ZM37.6641 172H36V163.781H37.6641V169.539H37.7266L41.5234 163.781H43.1875V172H41.5234V166.227H41.4609L37.6641 172ZM50.3984 172V168.422H46.6797V172H45V163.781H46.6797V167.094H50.3984V163.781H52.0781V172H50.3984Z" fill="#333333"/>
<path d="M4.17188 290.898V289.523H5.53125C6.13542 289.523 6.6276 289.352 7.00781 289.008C7.39323 288.664 7.58594 288.227 7.58594 287.695C7.58594 287.159 7.40625 286.734 7.04688 286.422C6.69271 286.109 6.1875 285.953 5.53125 285.953C4.92188 285.953 4.42708 286.117 4.04688 286.445C3.66667 286.768 3.45052 287.208 3.39844 287.766H1.75C1.81771 286.776 2.19792 285.987 2.89062 285.398C3.58854 284.81 4.49479 284.516 5.60938 284.516C6.68229 284.516 7.5651 284.792 8.25781 285.344C8.95052 285.891 9.29688 286.596 9.29688 287.461C9.29688 288.159 9.08594 288.747 8.66406 289.227C8.24219 289.701 7.67969 290 6.97656 290.125V290.156C7.83073 290.214 8.50781 290.487 9.00781 290.977C9.51302 291.466 9.76562 292.104 9.76562 292.891C9.76562 293.865 9.3724 294.661 8.58594 295.281C7.79948 295.901 6.8125 296.211 5.625 296.211C4.42188 296.211 3.45052 295.911 2.71094 295.312C1.97656 294.708 1.58073 293.914 1.52344 292.93H3.20312C3.26042 293.477 3.5026 293.917 3.92969 294.25C4.36198 294.583 4.92708 294.75 5.625 294.75C6.3125 294.75 6.8776 294.576 7.32031 294.227C7.76302 293.872 7.98438 293.419 7.98438 292.867C7.98438 292.258 7.76823 291.779 7.33594 291.43C6.90885 291.076 6.32292 290.898 5.57812 290.898H4.17188ZM18.6641 294.633C17.9089 295.685 16.8594 296.211 15.5156 296.211C14.1719 296.211 13.1172 295.688 12.3516 294.641C11.5911 293.589 11.2109 292.159 11.2109 290.352C11.2109 288.56 11.5938 287.141 12.3594 286.094C13.125 285.042 14.1771 284.516 15.5156 284.516C16.8542 284.516 17.9036 285.039 18.6641 286.086C19.4245 287.128 19.8047 288.547 19.8047 290.344C19.8047 292.151 19.4245 293.581 18.6641 294.633ZM13.6484 293.578C14.0911 294.354 14.7135 294.742 15.5156 294.742C16.3177 294.742 16.9375 294.354 17.375 293.578C17.8177 292.797 18.0391 291.721 18.0391 290.352C18.0391 288.997 17.8151 287.932 17.3672 287.156C16.9245 286.375 16.3073 285.984 15.5156 285.984C14.724 285.984 14.1042 286.375 13.6562 287.156C13.2083 287.938 12.9844 289.003 12.9844 290.352C12.9844 291.721 13.2057 292.797 13.6484 293.578ZM26.2812 296H24.6562V287.781H26.7734L29.4062 293.805H29.4688L32.1172 287.781H34.1875V296H32.5469V290.297H32.4922L30.0312 295.68H28.7969L26.3359 290.297H26.2812V296ZM37.6641 296H36V287.781H37.6641V293.539H37.7266L41.5234 287.781H43.1875V296H41.5234V290.227H41.4609L37.6641 296ZM50.3984 296V292.422H46.6797V296H45V287.781H46.6797V291.094H50.3984V287.781H52.0781V296H50.3984Z" fill="#333333"/>
<path d="M4.17188 104.898V103.523H5.53125C6.13542 103.523 6.6276 103.352 7.00781 103.008C7.39323 102.664 7.58594 102.227 7.58594 101.695C7.58594 101.159 7.40625 100.734 7.04688 100.422C6.69271 100.109 6.1875 99.9531 5.53125 99.9531C4.92188 99.9531 4.42708 100.117 4.04688 100.445C3.66667 100.768 3.45052 101.208 3.39844 101.766H1.75C1.81771 100.776 2.19792 99.987 2.89062 99.3984C3.58854 98.8099 4.49479 98.5156 5.60938 98.5156C6.68229 98.5156 7.5651 98.7917 8.25781 99.3438C8.95052 99.8906 9.29688 100.596 9.29688 101.461C9.29688 102.159 9.08594 102.747 8.66406 103.227C8.24219 103.701 7.67969 104 6.97656 104.125V104.156C7.83073 104.214 8.50781 104.487 9.00781 104.977C9.51302 105.466 9.76562 106.104 9.76562 106.891C9.76562 107.865 9.3724 108.661 8.58594 109.281C7.79948 109.901 6.8125 110.211 5.625 110.211C4.42188 110.211 3.45052 109.911 2.71094 109.312C1.97656 108.708 1.58073 107.914 1.52344 106.93H3.20312C3.26042 107.477 3.5026 107.917 3.92969 108.25C4.36198 108.583 4.92708 108.75 5.625 108.75C6.3125 108.75 6.8776 108.576 7.32031 108.227C7.76302 107.872 7.98438 107.419 7.98438 106.867C7.98438 106.258 7.76823 105.779 7.33594 105.43C6.90885 105.076 6.32292 104.898 5.57812 104.898H4.17188ZM18.6641 108.633C17.9089 109.685 16.8594 110.211 15.5156 110.211C14.1719 110.211 13.1172 109.688 12.3516 108.641C11.5911 107.589 11.2109 106.159 11.2109 104.352C11.2109 102.56 11.5938 101.141 12.3594 100.094C13.125 99.0417 14.1771 98.5156 15.5156 98.5156C16.8542 98.5156 17.9036 99.0391 18.6641 100.086C19.4245 101.128 19.8047 102.547 19.8047 104.344C19.8047 106.151 19.4245 107.581 18.6641 108.633ZM13.6484 107.578C14.0911 108.354 14.7135 108.742 15.5156 108.742C16.3177 108.742 16.9375 108.354 17.375 107.578C17.8177 106.797 18.0391 105.721 18.0391 104.352C18.0391 102.997 17.8151 101.932 17.3672 101.156C16.9245 100.375 16.3073 99.9844 15.5156 99.9844C14.724 99.9844 14.1042 100.375 13.6562 101.156C13.2083 101.938 12.9844 103.003 12.9844 104.352C12.9844 105.721 13.2057 106.797 13.6484 107.578ZM26.2812 110H24.6562V101.781H26.7734L29.4062 107.805H29.4688L32.1172 101.781H34.1875V110H32.5469V104.297H32.4922L30.0312 109.68H28.7969L26.3359 104.297H26.2812V110ZM37.6641 110H36V101.781H37.6641V107.539H37.7266L41.5234 101.781H43.1875V110H41.5234V104.227H41.4609L37.6641 110ZM50.3984 110V106.422H46.6797V110H45V101.781H46.6797V105.094H50.3984V101.781H52.0781V110H50.3984Z" fill="#333333"/>
<path d="M4.17188 228.898V227.523H5.53125C6.13542 227.523 6.6276 227.352 7.00781 227.008C7.39323 226.664 7.58594 226.227 7.58594 225.695C7.58594 225.159 7.40625 224.734 7.04688 224.422C6.69271 224.109 6.1875 223.953 5.53125 223.953C4.92188 223.953 4.42708 224.117 4.04688 224.445C3.66667 224.768 3.45052 225.208 3.39844 225.766H1.75C1.81771 224.776 2.19792 223.987 2.89062 223.398C3.58854 222.81 4.49479 222.516 5.60938 222.516C6.68229 222.516 7.5651 222.792 8.25781 223.344C8.95052 223.891 9.29688 224.596 9.29688 225.461C9.29688 226.159 9.08594 226.747 8.66406 227.227C8.24219 227.701 7.67969 228 6.97656 228.125V228.156C7.83073 228.214 8.50781 228.487 9.00781 228.977C9.51302 229.466 9.76562 230.104 9.76562 230.891C9.76562 231.865 9.3724 232.661 8.58594 233.281C7.79948 233.901 6.8125 234.211 5.625 234.211C4.42188 234.211 3.45052 233.911 2.71094 233.312C1.97656 232.708 1.58073 231.914 1.52344 230.93H3.20312C3.26042 231.477 3.5026 231.917 3.92969 232.25C4.36198 232.583 4.92708 232.75 5.625 232.75C6.3125 232.75 6.8776 232.576 7.32031 232.227C7.76302 231.872 7.98438 231.419 7.98438 230.867C7.98438 230.258 7.76823 229.779 7.33594 229.43C6.90885 229.076 6.32292 228.898 5.57812 228.898H4.17188ZM18.6641 232.633C17.9089 233.685 16.8594 234.211 15.5156 234.211C14.1719 234.211 13.1172 233.688 12.3516 232.641C11.5911 231.589 11.2109 230.159 11.2109 228.352C11.2109 226.56 11.5938 225.141 12.3594 224.094C13.125 223.042 14.1771 222.516 15.5156 222.516C16.8542 222.516 17.9036 223.039 18.6641 224.086C19.4245 225.128 19.8047 226.547 19.8047 228.344C19.8047 230.151 19.4245 231.581 18.6641 232.633ZM13.6484 231.578C14.0911 232.354 14.7135 232.742 15.5156 232.742C16.3177 232.742 16.9375 232.354 17.375 231.578C17.8177 230.797 18.0391 229.721 18.0391 228.352C18.0391 226.997 17.8151 225.932 17.3672 225.156C16.9245 224.375 16.3073 223.984 15.5156 223.984C14.724 223.984 14.1042 224.375 13.6562 225.156C13.2083 225.938 12.9844 227.003 12.9844 228.352C12.9844 229.721 13.2057 230.797 13.6484 231.578ZM26.2812 234H24.6562V225.781H26.7734L29.4062 231.805H29.4688L32.1172 225.781H34.1875V234H32.5469V228.297H32.4922L30.0312 233.68H28.7969L26.3359 228.297H26.2812V234ZM37.6641 234H36V225.781H37.6641V231.539H37.7266L41.5234 225.781H43.1875V234H41.5234V228.227H41.4609L37.6641 234ZM50.3984 234V230.422H46.6797V234H45V225.781H46.6797V229.094H50.3984V225.781H52.0781V234H50.3984Z" fill="#333333"/>
<rect x="85" y="11" width="4" height="311" fill="#59A4F2"/>
<rect x="85" y="11" width="4" height="125" fill="#F1564A"/>
<circle cx="87" cy="11" r="10" fill="#59A4F2"/>
<path d="M130.117 13.5547C130.117 14.5755 129.771 15.4062 129.078 16.0469C128.391 16.6823 127.5 17 126.406 17H122.117V5.72656H129.023V7.23438H123.867V10.125H126.367C127.471 10.125 128.372 10.4427 129.07 11.0781C129.768 11.7135 130.117 12.5391 130.117 13.5547ZM123.867 15.5156H125.961C126.716 15.5156 127.299 15.3464 127.711 15.0078C128.122 14.6693 128.328 14.1849 128.328 13.5547C128.328 12.9245 128.12 12.4401 127.703 12.1016C127.292 11.7578 126.708 11.5859 125.953 11.5859H123.867V15.5156ZM138.25 16.0156C137.542 16.776 136.596 17.1562 135.414 17.1562C134.232 17.1562 133.286 16.776 132.578 16.0156C131.87 15.25 131.516 14.2083 131.516 12.8906C131.516 11.5781 131.87 10.5417 132.578 9.78125C133.286 9.01562 134.232 8.63281 135.414 8.63281C136.596 8.63281 137.542 9.01562 138.25 9.78125C138.958 10.5417 139.312 11.5781 139.312 12.8906C139.312 14.2083 138.958 15.25 138.25 16.0156ZM135.414 15.7656C136.086 15.7656 136.617 15.513 137.008 15.0078C137.398 14.5026 137.594 13.7969 137.594 12.8906C137.594 11.9896 137.396 11.2865 137 10.7812C136.609 10.276 136.081 10.0234 135.414 10.0234C134.747 10.0234 134.216 10.276 133.82 10.7812C133.43 11.2865 133.234 11.9896 133.234 12.8906C133.234 13.7969 133.43 14.5026 133.82 15.0078C134.216 15.513 134.747 15.7656 135.414 15.7656ZM142.953 13.2578C142.922 13.7474 142.872 14.1797 142.805 14.5547C142.737 14.9297 142.638 15.2812 142.508 15.6094C142.378 15.9323 142.219 16.2005 142.031 16.4141C141.844 16.6224 141.609 16.7865 141.328 16.9062C141.052 17.0208 140.732 17.0781 140.367 17.0781C140.138 17.0781 139.948 17.0495 139.797 16.9922V15.5078C139.938 15.5495 140.086 15.5703 140.242 15.5703C140.617 15.5703 140.893 15.3672 141.07 14.9609C141.247 14.5547 141.362 13.9635 141.414 13.1875L141.695 8.78125H147.391V17H145.711V10.1172H143.18L142.953 13.2578ZM152.305 12.6406H150.883V15.6719H152.305C152.789 15.6719 153.174 15.5339 153.461 15.2578C153.753 14.9766 153.898 14.6094 153.898 14.1562C153.898 13.6979 153.753 13.3307 153.461 13.0547C153.169 12.7786 152.784 12.6406 152.305 12.6406ZM149.203 17V8.78125H150.883V11.3203H152.453C153.406 11.3203 154.164 11.5781 154.727 12.0938C155.294 12.6042 155.578 13.2917 155.578 14.1562C155.578 15.026 155.294 15.7188 154.727 16.2344C154.164 16.7448 153.406 17 152.453 17H149.203ZM156.984 17V8.78125H158.664V15.6641H161.422V8.78125H163.102V15.6641H165.859V8.78125H167.539V17H156.984ZM175.734 16.0156C175.026 16.776 174.081 17.1562 172.898 17.1562C171.716 17.1562 170.771 16.776 170.062 16.0156C169.354 15.25 169 14.2083 169 12.8906C169 11.5781 169.354 10.5417 170.062 9.78125C170.771 9.01562 171.716 8.63281 172.898 8.63281C174.081 8.63281 175.026 9.01562 175.734 9.78125C176.443 10.5417 176.797 11.5781 176.797 12.8906C176.797 14.2083 176.443 15.25 175.734 16.0156ZM172.898 15.7656C173.57 15.7656 174.102 15.513 174.492 15.0078C174.883 14.5026 175.078 13.7969 175.078 12.8906C175.078 11.9896 174.88 11.2865 174.484 10.7812C174.094 10.276 173.565 10.0234 172.898 10.0234C172.232 10.0234 171.701 10.276 171.305 10.7812C170.914 11.2865 170.719 11.9896 170.719 12.8906C170.719 13.7969 170.914 14.5026 171.305 15.0078C171.701 15.513 172.232 15.7656 172.898 15.7656ZM179.914 17H178.25V8.78125H179.914V14.5391H179.977L183.773 8.78125H185.438V17H183.773V11.2266H183.711L179.914 17ZM179.367 5.17188H180.508C180.513 5.61979 180.648 5.99219 180.914 6.28906C181.18 6.58073 181.529 6.72656 181.961 6.72656C182.398 6.72656 182.75 6.58073 183.016 6.28906C183.281 5.99219 183.417 5.61979 183.422 5.17188H184.562C184.562 5.91146 184.323 6.51042 183.844 6.96875C183.365 7.42188 182.737 7.64844 181.961 7.64844C181.19 7.64844 180.565 7.42188 180.086 6.96875C179.607 6.51042 179.367 5.91146 179.367 5.17188ZM195.969 15.6641V10.1172H193.109L192.883 13.2578C192.815 14.3099 192.602 15.0911 192.242 15.6016V15.6641H195.969ZM191.297 19.1562H189.742V15.6641H190.406C190.948 15.3255 191.266 14.5 191.359 13.1875L191.656 8.78125H197.648V15.6641H198.922V19.1562H197.359V17H191.297V19.1562ZM203.453 10.0078H201.727V12.1641H203.289C204.242 12.1641 204.719 11.7995 204.719 11.0703C204.719 10.7318 204.609 10.4714 204.391 10.2891C204.172 10.1016 203.859 10.0078 203.453 10.0078ZM203.398 13.3438H201.727V15.7734H203.586C204.065 15.7734 204.43 15.6719 204.68 15.4688C204.93 15.2604 205.055 14.9583 205.055 14.5625C205.055 13.75 204.503 13.3438 203.398 13.3438ZM200.062 17V8.78125H203.797C204.599 8.78125 205.227 8.96875 205.68 9.34375C206.138 9.71354 206.367 10.224 206.367 10.875C206.367 11.3021 206.232 11.6875 205.961 12.0312C205.695 12.3698 205.365 12.5755 204.969 12.6484V12.7109C205.5 12.7839 205.927 12.9948 206.25 13.3438C206.573 13.6875 206.734 14.1172 206.734 14.6328C206.734 15.3568 206.474 15.9323 205.953 16.3594C205.438 16.7865 204.734 17 203.844 17H200.062ZM214.609 16.0156C213.901 16.776 212.956 17.1562 211.773 17.1562C210.591 17.1562 209.646 16.776 208.938 16.0156C208.229 15.25 207.875 14.2083 207.875 12.8906C207.875 11.5781 208.229 10.5417 208.938 9.78125C209.646 9.01562 210.591 8.63281 211.773 8.63281C212.956 8.63281 213.901 9.01562 214.609 9.78125C215.318 10.5417 215.672 11.5781 215.672 12.8906C215.672 14.2083 215.318 15.25 214.609 16.0156ZM211.773 15.7656C212.445 15.7656 212.977 15.513 213.367 15.0078C213.758 14.5026 213.953 13.7969 213.953 12.8906C213.953 11.9896 213.755 11.2865 213.359 10.7812C212.969 10.276 212.44 10.0234 211.773 10.0234C211.107 10.0234 210.576 10.276 210.18 10.7812C209.789 11.2865 209.594 11.9896 209.594 12.8906C209.594 13.7969 209.789 14.5026 210.18 15.0078C210.576 15.513 211.107 15.7656 211.773 15.7656ZM221.414 8.64844C222.461 8.64844 223.299 9.03125 223.93 9.79688C224.56 10.5625 224.875 11.5938 224.875 12.8906C224.875 14.1875 224.562 15.2214 223.938 15.9922C223.312 16.7578 222.482 17.1406 221.445 17.1406C220.862 17.1406 220.344 17.0078 219.891 16.7422C219.443 16.4766 219.099 16.112 218.859 15.6484H218.82V19.7188H217.133V8.78125H218.766V10.1953H218.797C219.042 9.71615 219.393 9.33854 219.852 9.0625C220.31 8.78646 220.831 8.64844 221.414 8.64844ZM220.969 15.7109C221.635 15.7109 222.164 15.4583 222.555 14.9531C222.945 14.4427 223.141 13.7552 223.141 12.8906C223.141 12.0312 222.945 11.3464 222.555 10.8359C222.164 10.3255 221.635 10.0703 220.969 10.0703C220.323 10.0703 219.802 10.3281 219.406 10.8438C219.01 11.3594 218.812 12.0417 218.812 12.8906C218.812 13.7448 219.008 14.4297 219.398 14.9453C219.794 15.4557 220.318 15.7109 220.969 15.7109ZM231.203 10.5859C230.833 10.1901 230.357 9.99219 229.773 9.99219C229.19 9.99219 228.706 10.1927 228.32 10.5938C227.935 10.9896 227.721 11.5026 227.68 12.1328H231.789C231.768 11.4974 231.573 10.9818 231.203 10.5859ZM231.781 14.5859H233.383C233.263 15.3411 232.878 15.9583 232.227 16.4375C231.576 16.9167 230.781 17.1562 229.844 17.1562C228.641 17.1562 227.693 16.7786 227 16.0234C226.312 15.263 225.969 14.2318 225.969 12.9297C225.969 11.638 226.312 10.599 227 9.8125C227.693 9.02604 228.617 8.63281 229.773 8.63281C230.909 8.63281 231.81 9.00521 232.477 9.75C233.143 10.4896 233.477 11.4844 233.477 12.7344V13.3125H227.672V13.4141C227.672 14.1328 227.872 14.7083 228.273 15.1406C228.674 15.5729 229.211 15.7891 229.883 15.7891C230.357 15.7891 230.763 15.6797 231.102 15.4609C231.44 15.2422 231.667 14.9505 231.781 14.5859ZM243.148 19.1562H241.594V17H234.922V8.78125H236.602V15.6641H240.188V8.78125H241.867V15.6641H243.148V19.1562Z" fill="#333333"/>
<circle cx="87" cy="135" r="10" fill="#59A4F2"/>
<path d="M130.117 137.555C130.117 138.576 129.771 139.406 129.078 140.047C128.391 140.682 127.5 141 126.406 141H122.117V129.727H129.023V131.234H123.867V134.125H126.367C127.471 134.125 128.372 134.443 129.07 135.078C129.768 135.714 130.117 136.539 130.117 137.555ZM123.867 139.516H125.961C126.716 139.516 127.299 139.346 127.711 139.008C128.122 138.669 128.328 138.185 128.328 137.555C128.328 136.924 128.12 136.44 127.703 136.102C127.292 135.758 126.708 135.586 125.953 135.586H123.867V139.516ZM138.25 140.016C137.542 140.776 136.596 141.156 135.414 141.156C134.232 141.156 133.286 140.776 132.578 140.016C131.87 139.25 131.516 138.208 131.516 136.891C131.516 135.578 131.87 134.542 132.578 133.781C133.286 133.016 134.232 132.633 135.414 132.633C136.596 132.633 137.542 133.016 138.25 133.781C138.958 134.542 139.312 135.578 139.312 136.891C139.312 138.208 138.958 139.25 138.25 140.016ZM135.414 139.766C136.086 139.766 136.617 139.513 137.008 139.008C137.398 138.503 137.594 137.797 137.594 136.891C137.594 135.99 137.396 135.286 137 134.781C136.609 134.276 136.081 134.023 135.414 134.023C134.747 134.023 134.216 134.276 133.82 134.781C133.43 135.286 133.234 135.99 133.234 136.891C133.234 137.797 133.43 138.503 133.82 139.008C134.216 139.513 134.747 139.766 135.414 139.766ZM142.953 137.258C142.922 137.747 142.872 138.18 142.805 138.555C142.737 138.93 142.638 139.281 142.508 139.609C142.378 139.932 142.219 140.201 142.031 140.414C141.844 140.622 141.609 140.786 141.328 140.906C141.052 141.021 140.732 141.078 140.367 141.078C140.138 141.078 139.948 141.049 139.797 140.992V139.508C139.938 139.549 140.086 139.57 140.242 139.57C140.617 139.57 140.893 139.367 141.07 138.961C141.247 138.555 141.362 137.964 141.414 137.188L141.695 132.781H147.391V141H145.711V134.117H143.18L142.953 137.258ZM152.305 136.641H150.883V139.672H152.305C152.789 139.672 153.174 139.534 153.461 139.258C153.753 138.977 153.898 138.609 153.898 138.156C153.898 137.698 153.753 137.331 153.461 137.055C153.169 136.779 152.784 136.641 152.305 136.641ZM149.203 141V132.781H150.883V135.32H152.453C153.406 135.32 154.164 135.578 154.727 136.094C155.294 136.604 155.578 137.292 155.578 138.156C155.578 139.026 155.294 139.719 154.727 140.234C154.164 140.745 153.406 141 152.453 141H149.203ZM156.984 141V132.781H158.664V139.664H161.422V132.781H163.102V139.664H165.859V132.781H167.539V141H156.984ZM175.734 140.016C175.026 140.776 174.081 141.156 172.898 141.156C171.716 141.156 170.771 140.776 170.062 140.016C169.354 139.25 169 138.208 169 136.891C169 135.578 169.354 134.542 170.062 133.781C170.771 133.016 171.716 132.633 172.898 132.633C174.081 132.633 175.026 133.016 175.734 133.781C176.443 134.542 176.797 135.578 176.797 136.891C176.797 138.208 176.443 139.25 175.734 140.016ZM172.898 139.766C173.57 139.766 174.102 139.513 174.492 139.008C174.883 138.503 175.078 137.797 175.078 136.891C175.078 135.99 174.88 135.286 174.484 134.781C174.094 134.276 173.565 134.023 172.898 134.023C172.232 134.023 171.701 134.276 171.305 134.781C170.914 135.286 170.719 135.99 170.719 136.891C170.719 137.797 170.914 138.503 171.305 139.008C171.701 139.513 172.232 139.766 172.898 139.766ZM179.914 141H178.25V132.781H179.914V138.539H179.977L183.773 132.781H185.438V141H183.773V135.227H183.711L179.914 141ZM179.367 129.172H180.508C180.513 129.62 180.648 129.992 180.914 130.289C181.18 130.581 181.529 130.727 181.961 130.727C182.398 130.727 182.75 130.581 183.016 130.289C183.281 129.992 183.417 129.62 183.422 129.172H184.562C184.562 129.911 184.323 130.51 183.844 130.969C183.365 131.422 182.737 131.648 181.961 131.648C181.19 131.648 180.565 131.422 180.086 130.969C179.607 130.51 179.367 129.911 179.367 129.172ZM195.969 139.664V134.117H193.109L192.883 137.258C192.815 138.31 192.602 139.091 192.242 139.602V139.664H195.969ZM191.297 143.156H189.742V139.664H190.406C190.948 139.326 191.266 138.5 191.359 137.188L191.656 132.781H197.648V139.664H198.922V143.156H197.359V141H191.297V143.156ZM203.453 134.008H201.727V136.164H203.289C204.242 136.164 204.719 135.799 204.719 135.07C204.719 134.732 204.609 134.471 204.391 134.289C204.172 134.102 203.859 134.008 203.453 134.008ZM203.398 137.344H201.727V139.773H203.586C204.065 139.773 204.43 139.672 204.68 139.469C204.93 139.26 205.055 138.958 205.055 138.562C205.055 137.75 204.503 137.344 203.398 137.344ZM200.062 141V132.781H203.797C204.599 132.781 205.227 132.969 205.68 133.344C206.138 133.714 206.367 134.224 206.367 134.875C206.367 135.302 206.232 135.688 205.961 136.031C205.695 136.37 205.365 136.576 204.969 136.648V136.711C205.5 136.784 205.927 136.995 206.25 137.344C206.573 137.688 206.734 138.117 206.734 138.633C206.734 139.357 206.474 139.932 205.953 140.359C205.438 140.786 204.734 141 203.844 141H200.062ZM214.609 140.016C213.901 140.776 212.956 141.156 211.773 141.156C210.591 141.156 209.646 140.776 208.938 140.016C208.229 139.25 207.875 138.208 207.875 136.891C207.875 135.578 208.229 134.542 208.938 133.781C209.646 133.016 210.591 132.633 211.773 132.633C212.956 132.633 213.901 133.016 214.609 133.781C215.318 134.542 215.672 135.578 215.672 136.891C215.672 138.208 215.318 139.25 214.609 140.016ZM211.773 139.766C212.445 139.766 212.977 139.513 213.367 139.008C213.758 138.503 213.953 137.797 213.953 136.891C213.953 135.99 213.755 135.286 213.359 134.781C212.969 134.276 212.44 134.023 211.773 134.023C211.107 134.023 210.576 134.276 210.18 134.781C209.789 135.286 209.594 135.99 209.594 136.891C209.594 137.797 209.789 138.503 210.18 139.008C210.576 139.513 211.107 139.766 211.773 139.766ZM221.414 132.648C222.461 132.648 223.299 133.031 223.93 133.797C224.56 134.562 224.875 135.594 224.875 136.891C224.875 138.188 224.562 139.221 223.938 139.992C223.312 140.758 222.482 141.141 221.445 141.141C220.862 141.141 220.344 141.008 219.891 140.742C219.443 140.477 219.099 140.112 218.859 139.648H218.82V143.719H217.133V132.781H218.766V134.195H218.797C219.042 133.716 219.393 133.339 219.852 133.062C220.31 132.786 220.831 132.648 221.414 132.648ZM220.969 139.711C221.635 139.711 222.164 139.458 222.555 138.953C222.945 138.443 223.141 137.755 223.141 136.891C223.141 136.031 222.945 135.346 222.555 134.836C222.164 134.326 221.635 134.07 220.969 134.07C220.323 134.07 219.802 134.328 219.406 134.844C219.01 135.359 218.812 136.042 218.812 136.891C218.812 137.745 219.008 138.43 219.398 138.945C219.794 139.456 220.318 139.711 220.969 139.711ZM231.203 134.586C230.833 134.19 230.357 133.992 229.773 133.992C229.19 133.992 228.706 134.193 228.32 134.594C227.935 134.99 227.721 135.503 227.68 136.133H231.789C231.768 135.497 231.573 134.982 231.203 134.586ZM231.781 138.586H233.383C233.263 139.341 232.878 139.958 232.227 140.438C231.576 140.917 230.781 141.156 229.844 141.156C228.641 141.156 227.693 140.779 227 140.023C226.312 139.263 225.969 138.232 225.969 136.93C225.969 135.638 226.312 134.599 227 133.812C227.693 133.026 228.617 132.633 229.773 132.633C230.909 132.633 231.81 133.005 232.477 133.75C233.143 134.49 233.477 135.484 233.477 136.734V137.312H227.672V137.414C227.672 138.133 227.872 138.708 228.273 139.141C228.674 139.573 229.211 139.789 229.883 139.789C230.357 139.789 230.763 139.68 231.102 139.461C231.44 139.242 231.667 138.951 231.781 138.586ZM243.148 143.156H241.594V141H234.922V132.781H236.602V139.664H240.188V132.781H241.867V139.664H243.148V143.156Z" fill="#333333"/>
</svg>
