<svg width="32" height="32" viewBox="0 0 32 32" fill="none" xmlns="http://www.w3.org/2000/svg">
<g clip-path="url(#clip0_238_1366)">
<path d="M31.9383 17.4779C31.651 14.588 30.3599 11.8635 28.3028 9.80626C26.5447 8.0483 24.3929 6.91859 22.1288 6.41627V4.82825C23.0535 4.59818 23.7409 3.7611 23.7409 2.76615C23.7409 1.59438 22.7877 0.641113 21.6159 0.641113H17.1158C15.9441 0.641113 14.9908 1.59438 14.9908 2.76615C14.9908 3.76104 15.6782 4.59812 16.6029 4.82825V6.42071C14.3457 6.92515 12.201 8.0533 10.448 9.80632C10.0643 10.19 9.71059 10.5924 9.38677 11.0107C9.37108 11.0095 9.3554 11.0083 9.3394 11.0083H4.88551C4.54038 11.0083 4.2605 11.2881 4.2605 11.6333C4.2605 11.9785 4.54038 12.2583 4.88551 12.2583H8.53632C8.07806 13.0255 7.70856 13.8312 7.4273 14.6606H0.62501C0.279879 14.6606 0 14.9404 0 15.2856C0 15.6308 0.279879 15.9106 0.62501 15.9106H7.07411C6.89398 16.7013 6.79061 17.506 6.76392 18.313H4.00006C3.65493 18.313 3.37505 18.5928 3.37505 18.938C3.37505 19.2832 3.65493 19.563 4.00006 19.563H6.78386C6.83661 20.372 6.96667 21.1768 7.17411 21.9654H3.12505C2.77992 21.9654 2.50004 22.2452 2.50004 22.5904C2.50004 22.9356 2.77992 23.2154 3.12505 23.2154H7.57299C8.18613 24.8373 9.14433 26.3576 10.448 27.6612C12.5071 29.7204 15.2344 31.0118 18.1273 31.2976C18.5402 31.3383 18.9534 31.3585 19.3661 31.3585C21.805 31.3585 24.2129 30.6527 26.256 29.3222C26.5453 29.1338 26.6271 28.7466 26.4387 28.4573C26.2503 28.1681 25.8632 28.0863 25.5739 28.2747C21.1015 31.187 15.1119 30.5573 11.3319 26.7773C6.89667 22.3421 6.89667 15.1256 11.3319 10.6903C15.767 6.25514 22.9835 6.25514 27.4188 10.6903C31.1938 14.4654 31.8269 20.4499 28.9242 24.9201C28.7362 25.2096 28.8185 25.5967 29.108 25.7847C29.3976 25.9727 29.7846 25.8904 29.9725 25.6009C31.5234 23.2124 32.2216 20.3277 31.9383 17.4779ZM16.2408 2.76621C16.2408 2.28371 16.6333 1.8912 17.1158 1.8912H21.6159C22.0984 1.8912 22.4909 2.28371 22.4909 2.76621C22.4909 3.24872 22.0984 3.64123 21.6159 3.64123H21.5038H17.2279H17.1158C16.6333 3.64123 16.2408 3.24866 16.2408 2.76621ZM17.8529 6.20583V4.89125H20.8788V6.20358C19.874 6.08408 18.8575 6.08483 17.8529 6.20583Z" fill="#59A4F2"/>
<path d="M27.8611 26.5938C27.6961 26.5938 27.5355 26.6606 27.4193 26.7769C27.3024 26.8931 27.2361 27.0545 27.2361 27.2188C27.2361 27.3831 27.3024 27.5445 27.4193 27.6607C27.5355 27.7776 27.6961 27.8438 27.8611 27.8438C28.0255 27.8438 28.1861 27.7776 28.303 27.6607C28.4192 27.5445 28.4861 27.3831 28.4861 27.2188C28.4861 27.0545 28.4193 26.8931 28.303 26.7769C28.1861 26.6606 28.0254 26.5938 27.8611 26.5938Z" fill="#59A4F2"/>
<path d="M19.3754 9.03809C14.0292 9.03809 9.67969 13.3876 9.67969 18.7338C9.67969 24.0801 14.0292 28.4295 19.3754 28.4295C24.7216 28.4295 29.0711 24.0801 29.0711 18.7338C29.0711 13.3876 24.7216 9.03809 19.3754 9.03809ZM19.3754 27.1795C14.7184 27.1795 10.9297 23.3908 10.9297 18.7338C10.9297 14.0769 14.7184 10.2881 19.3754 10.2881C24.0324 10.2881 27.8211 14.0769 27.8211 18.7338C27.8211 23.3908 24.0324 27.1795 19.3754 27.1795Z" fill="#59A4F2"/>
<path d="M23.3288 13.8964L20.2332 16.992C19.9743 16.864 19.6831 16.7917 19.3753 16.7917C19.0674 16.7917 18.7763 16.864 18.5174 16.992L17.1319 15.6066C16.8878 15.3625 16.4922 15.3625 16.248 15.6066C16.0039 15.8506 16.0039 16.2464 16.248 16.4905L17.6334 17.8759C17.5054 18.1348 17.4331 18.426 17.4331 18.7338C17.4331 19.8047 18.3043 20.676 19.3753 20.676C20.4462 20.676 21.3174 19.8047 21.3174 18.7338C21.3174 18.426 21.2451 18.1348 21.1171 17.8759L24.1219 14.8711L24.2127 14.7803C24.4568 14.5363 24.4568 14.1405 24.2127 13.8964C23.9687 13.6524 23.573 13.6524 23.3288 13.8964ZM19.3753 19.426C18.9937 19.426 18.6831 19.1155 18.6831 18.7339C18.6831 18.3523 18.9937 18.0417 19.3753 18.0417C19.7569 18.0417 20.0674 18.3523 20.0674 18.7339C20.0674 19.1155 19.7569 19.426 19.3753 19.426Z" fill="#59A4F2"/>
<path d="M26.0581 18.1162H25.479C25.1339 18.1162 24.854 18.396 24.854 18.7412C24.854 19.0863 25.1339 19.3662 25.479 19.3662H26.0581C26.4032 19.3662 26.6831 19.0863 26.6831 18.7412C26.6831 18.396 26.4032 18.1162 26.0581 18.1162Z" fill="#59A4F2"/>
<path d="M13.2719 18.1011H12.6929C12.3477 18.1011 12.0679 18.3809 12.0679 18.7261C12.0679 19.0713 12.3477 19.3511 12.6929 19.3511H13.2719C13.617 19.3511 13.8969 19.0713 13.8969 18.7261C13.8969 18.3809 13.617 18.1011 13.2719 18.1011Z" fill="#59A4F2"/>
<path d="M19.3831 13.2553C19.7282 13.2553 20.0081 12.9755 20.0081 12.6303V12.0513C20.0081 11.7061 19.7282 11.4263 19.3831 11.4263C19.0379 11.4263 18.7581 11.7061 18.7581 12.0513V12.6303C18.7581 12.9755 19.0379 13.2553 19.3831 13.2553Z" fill="#59A4F2"/>
<path d="M19.3677 24.2119C19.0226 24.2119 18.7427 24.4917 18.7427 24.8369V25.4159C18.7427 25.7611 19.0226 26.0409 19.3677 26.0409C19.7128 26.0409 19.9927 25.7611 19.9927 25.4159V24.8369C19.9927 24.4917 19.7128 24.2119 19.3677 24.2119Z" fill="#59A4F2"/>
<path d="M0.625 21.9648C0.460625 21.9648 0.299375 22.0317 0.183125 22.148C0.066875 22.2642 0 22.4255 0 22.5898C0 22.7548 0.0668125 22.9155 0.183125 23.0317C0.299437 23.148 0.460625 23.2148 0.625 23.2148C0.789375 23.2148 0.950625 23.148 1.06681 23.0317C1.18306 22.9155 1.25 22.7542 1.25 22.5898C1.25 22.4255 1.18313 22.2642 1.06681 22.148C0.950625 22.0317 0.789375 21.9648 0.625 21.9648Z" fill="#59A4F2"/>
</g>
<defs>
<clipPath id="clip0_238_1366">
<rect width="32" height="32" fill="white"/>
</clipPath>
</defs>
</svg>
